G04 #@! TF.GenerationSoftware,KiCad,Pcbnew,5.1.9-73d0e3b20d~88~ubuntu20.04.1*
G04 #@! TF.CreationDate,2022-04-18T22:37:33-07:00*
G04 #@! TF.ProjectId,Photo_Resistor_Sensing2,50686f74-6f5f-4526-9573-6973746f725f,rev?*
G04 #@! TF.SameCoordinates,Original*
G04 #@! TF.FileFunction,Legend,Top*
G04 #@! TF.FilePolarity,Positive*
%FSLAX46Y46*%
G04 Gerber Fmt 4.6, Leading zero omitted, Abs format (unit mm)*
G04 Created by KiCad (PCBNEW 5.1.9-73d0e3b20d~88~ubuntu20.04.1) date 2022-04-18 22:37:33*
%MOMM*%
%LPD*%
G01*
G04 APERTURE LIST*
%ADD10C,0.300000*%
%ADD11C,0.120000*%
%ADD12C,0.150000*%
G04 APERTURE END LIST*
D10*
X146324285Y-62832142D02*
X146538571Y-62903571D01*
X146895714Y-62903571D01*
X147038571Y-62832142D01*
X147110000Y-62760714D01*
X147181428Y-62617857D01*
X147181428Y-62475000D01*
X147110000Y-62332142D01*
X147038571Y-62260714D01*
X146895714Y-62189285D01*
X146610000Y-62117857D01*
X146467142Y-62046428D01*
X146395714Y-61975000D01*
X146324285Y-61832142D01*
X146324285Y-61689285D01*
X146395714Y-61546428D01*
X146467142Y-61475000D01*
X146610000Y-61403571D01*
X146967142Y-61403571D01*
X147181428Y-61475000D01*
X148467142Y-62832142D02*
X148324285Y-62903571D01*
X148038571Y-62903571D01*
X147895714Y-62832142D01*
X147824285Y-62760714D01*
X147752857Y-62617857D01*
X147752857Y-62189285D01*
X147824285Y-62046428D01*
X147895714Y-61975000D01*
X148038571Y-61903571D01*
X148324285Y-61903571D01*
X148467142Y-61975000D01*
X149110000Y-62903571D02*
X149110000Y-61903571D01*
X149110000Y-62189285D02*
X149181428Y-62046428D01*
X149252857Y-61975000D01*
X149395714Y-61903571D01*
X149538571Y-61903571D01*
X150610000Y-62832142D02*
X150467142Y-62903571D01*
X150181428Y-62903571D01*
X150038571Y-62832142D01*
X149967142Y-62689285D01*
X149967142Y-62117857D01*
X150038571Y-61975000D01*
X150181428Y-61903571D01*
X150467142Y-61903571D01*
X150610000Y-61975000D01*
X150681428Y-62117857D01*
X150681428Y-62260714D01*
X149967142Y-62403571D01*
X151181428Y-61903571D02*
X151467142Y-62903571D01*
X151752857Y-62189285D01*
X152038571Y-62903571D01*
X152324285Y-61903571D01*
X144610000Y-63953571D02*
X145467142Y-63953571D01*
X145038571Y-65453571D02*
X145038571Y-63953571D01*
X146538571Y-65382142D02*
X146395714Y-65453571D01*
X146110000Y-65453571D01*
X145967142Y-65382142D01*
X145895714Y-65239285D01*
X145895714Y-64667857D01*
X145967142Y-64525000D01*
X146110000Y-64453571D01*
X146395714Y-64453571D01*
X146538571Y-64525000D01*
X146610000Y-64667857D01*
X146610000Y-64810714D01*
X145895714Y-64953571D01*
X147252857Y-65453571D02*
X147252857Y-64453571D01*
X147252857Y-64739285D02*
X147324285Y-64596428D01*
X147395714Y-64525000D01*
X147538571Y-64453571D01*
X147681428Y-64453571D01*
X148181428Y-65453571D02*
X148181428Y-64453571D01*
X148181428Y-64596428D02*
X148252857Y-64525000D01*
X148395714Y-64453571D01*
X148610000Y-64453571D01*
X148752857Y-64525000D01*
X148824285Y-64667857D01*
X148824285Y-65453571D01*
X148824285Y-64667857D02*
X148895714Y-64525000D01*
X149038571Y-64453571D01*
X149252857Y-64453571D01*
X149395714Y-64525000D01*
X149467142Y-64667857D01*
X149467142Y-65453571D01*
X150181428Y-65453571D02*
X150181428Y-64453571D01*
X150181428Y-63953571D02*
X150110000Y-64025000D01*
X150181428Y-64096428D01*
X150252857Y-64025000D01*
X150181428Y-63953571D01*
X150181428Y-64096428D01*
X150895714Y-64453571D02*
X150895714Y-65453571D01*
X150895714Y-64596428D02*
X150967142Y-64525000D01*
X151110000Y-64453571D01*
X151324285Y-64453571D01*
X151467142Y-64525000D01*
X151538571Y-64667857D01*
X151538571Y-65453571D01*
X152895714Y-65453571D02*
X152895714Y-64667857D01*
X152824285Y-64525000D01*
X152681428Y-64453571D01*
X152395714Y-64453571D01*
X152252857Y-64525000D01*
X152895714Y-65382142D02*
X152752857Y-65453571D01*
X152395714Y-65453571D01*
X152252857Y-65382142D01*
X152181428Y-65239285D01*
X152181428Y-65096428D01*
X152252857Y-64953571D01*
X152395714Y-64882142D01*
X152752857Y-64882142D01*
X152895714Y-64810714D01*
X153824285Y-65453571D02*
X153681428Y-65382142D01*
X153610000Y-65239285D01*
X153610000Y-63953571D01*
X154324285Y-65382142D02*
X154467142Y-65453571D01*
X154752857Y-65453571D01*
X154895714Y-65382142D01*
X154967142Y-65239285D01*
X154967142Y-65167857D01*
X154895714Y-65025000D01*
X154752857Y-64953571D01*
X154538571Y-64953571D01*
X154395714Y-64882142D01*
X154324285Y-64739285D01*
X154324285Y-64667857D01*
X154395714Y-64525000D01*
X154538571Y-64453571D01*
X154752857Y-64453571D01*
X154895714Y-64525000D01*
X203295714Y-62117857D02*
X203795714Y-62117857D01*
X204010000Y-62903571D02*
X203295714Y-62903571D01*
X203295714Y-61403571D01*
X204010000Y-61403571D01*
X204652857Y-62117857D02*
X205152857Y-62117857D01*
X205367142Y-62903571D02*
X204652857Y-62903571D01*
X204652857Y-61403571D01*
X205367142Y-61403571D01*
X207081428Y-61546428D02*
X207152857Y-61475000D01*
X207295714Y-61403571D01*
X207652857Y-61403571D01*
X207795714Y-61475000D01*
X207867142Y-61546428D01*
X207938571Y-61689285D01*
X207938571Y-61832142D01*
X207867142Y-62046428D01*
X207010000Y-62903571D01*
X207938571Y-62903571D01*
X208652857Y-62903571D02*
X208938571Y-62903571D01*
X209081428Y-62832142D01*
X209152857Y-62760714D01*
X209295714Y-62546428D01*
X209367142Y-62260714D01*
X209367142Y-61689285D01*
X209295714Y-61546428D01*
X209224285Y-61475000D01*
X209081428Y-61403571D01*
X208795714Y-61403571D01*
X208652857Y-61475000D01*
X208581428Y-61546428D01*
X208510000Y-61689285D01*
X208510000Y-62046428D01*
X208581428Y-62189285D01*
X208652857Y-62260714D01*
X208795714Y-62332142D01*
X209081428Y-62332142D01*
X209224285Y-62260714D01*
X209295714Y-62189285D01*
X209367142Y-62046428D01*
X210081428Y-62903571D02*
X210367142Y-62903571D01*
X210510000Y-62832142D01*
X210581428Y-62760714D01*
X210724285Y-62546428D01*
X210795714Y-62260714D01*
X210795714Y-61689285D01*
X210724285Y-61546428D01*
X210652857Y-61475000D01*
X210510000Y-61403571D01*
X210224285Y-61403571D01*
X210081428Y-61475000D01*
X210010000Y-61546428D01*
X209938571Y-61689285D01*
X209938571Y-62046428D01*
X210010000Y-62189285D01*
X210081428Y-62260714D01*
X210224285Y-62332142D01*
X210510000Y-62332142D01*
X210652857Y-62260714D01*
X210724285Y-62189285D01*
X210795714Y-62046428D01*
X193902857Y-65453571D02*
X193902857Y-63953571D01*
X194474285Y-63953571D01*
X194617142Y-64025000D01*
X194688571Y-64096428D01*
X194759999Y-64239285D01*
X194759999Y-64453571D01*
X194688571Y-64596428D01*
X194617142Y-64667857D01*
X194474285Y-64739285D01*
X193902857Y-64739285D01*
X195402857Y-65453571D02*
X195402857Y-63953571D01*
X196045714Y-65453571D02*
X196045714Y-64667857D01*
X195974285Y-64525000D01*
X195831428Y-64453571D01*
X195617142Y-64453571D01*
X195474285Y-64525000D01*
X195402857Y-64596428D01*
X196974285Y-65453571D02*
X196831428Y-65382142D01*
X196759999Y-65310714D01*
X196688571Y-65167857D01*
X196688571Y-64739285D01*
X196759999Y-64596428D01*
X196831428Y-64525000D01*
X196974285Y-64453571D01*
X197188571Y-64453571D01*
X197331428Y-64525000D01*
X197402857Y-64596428D01*
X197474285Y-64739285D01*
X197474285Y-65167857D01*
X197402857Y-65310714D01*
X197331428Y-65382142D01*
X197188571Y-65453571D01*
X196974285Y-65453571D01*
X197902857Y-64453571D02*
X198474285Y-64453571D01*
X198117142Y-63953571D02*
X198117142Y-65239285D01*
X198188571Y-65382142D01*
X198331428Y-65453571D01*
X198474285Y-65453571D01*
X199188571Y-65453571D02*
X199045714Y-65382142D01*
X198974285Y-65310714D01*
X198902857Y-65167857D01*
X198902857Y-64739285D01*
X198974285Y-64596428D01*
X199045714Y-64525000D01*
X199188571Y-64453571D01*
X199402857Y-64453571D01*
X199545714Y-64525000D01*
X199617142Y-64596428D01*
X199688571Y-64739285D01*
X199688571Y-65167857D01*
X199617142Y-65310714D01*
X199545714Y-65382142D01*
X199402857Y-65453571D01*
X199188571Y-65453571D01*
X200331428Y-64882142D02*
X201474285Y-64882142D01*
X203045714Y-65453571D02*
X202545714Y-64739285D01*
X202188571Y-65453571D02*
X202188571Y-63953571D01*
X202759999Y-63953571D01*
X202902857Y-64025000D01*
X202974285Y-64096428D01*
X203045714Y-64239285D01*
X203045714Y-64453571D01*
X202974285Y-64596428D01*
X202902857Y-64667857D01*
X202759999Y-64739285D01*
X202188571Y-64739285D01*
X204259999Y-65382142D02*
X204117142Y-65453571D01*
X203831428Y-65453571D01*
X203688571Y-65382142D01*
X203617142Y-65239285D01*
X203617142Y-64667857D01*
X203688571Y-64525000D01*
X203831428Y-64453571D01*
X204117142Y-64453571D01*
X204259999Y-64525000D01*
X204331428Y-64667857D01*
X204331428Y-64810714D01*
X203617142Y-64953571D01*
X204902857Y-65382142D02*
X205045714Y-65453571D01*
X205331428Y-65453571D01*
X205474285Y-65382142D01*
X205545714Y-65239285D01*
X205545714Y-65167857D01*
X205474285Y-65025000D01*
X205331428Y-64953571D01*
X205117142Y-64953571D01*
X204974285Y-64882142D01*
X204902857Y-64739285D01*
X204902857Y-64667857D01*
X204974285Y-64525000D01*
X205117142Y-64453571D01*
X205331428Y-64453571D01*
X205474285Y-64525000D01*
X206188571Y-65453571D02*
X206188571Y-64453571D01*
X206188571Y-63953571D02*
X206117142Y-64025000D01*
X206188571Y-64096428D01*
X206259999Y-64025000D01*
X206188571Y-63953571D01*
X206188571Y-64096428D01*
X206831428Y-65382142D02*
X206974285Y-65453571D01*
X207259999Y-65453571D01*
X207402857Y-65382142D01*
X207474285Y-65239285D01*
X207474285Y-65167857D01*
X207402857Y-65025000D01*
X207259999Y-64953571D01*
X207045714Y-64953571D01*
X206902857Y-64882142D01*
X206831428Y-64739285D01*
X206831428Y-64667857D01*
X206902857Y-64525000D01*
X207045714Y-64453571D01*
X207259999Y-64453571D01*
X207402857Y-64525000D01*
X207902857Y-64453571D02*
X208474285Y-64453571D01*
X208117142Y-63953571D02*
X208117142Y-65239285D01*
X208188571Y-65382142D01*
X208331428Y-65453571D01*
X208474285Y-65453571D01*
X208974285Y-65453571D02*
X208974285Y-64453571D01*
X208974285Y-63953571D02*
X208902857Y-64025000D01*
X208974285Y-64096428D01*
X209045714Y-64025000D01*
X208974285Y-63953571D01*
X208974285Y-64096428D01*
X209545714Y-64453571D02*
X209902857Y-65453571D01*
X210259999Y-64453571D01*
X211402857Y-65382142D02*
X211260000Y-65453571D01*
X210974285Y-65453571D01*
X210831428Y-65382142D01*
X210760000Y-65239285D01*
X210760000Y-64667857D01*
X210831428Y-64525000D01*
X210974285Y-64453571D01*
X211260000Y-64453571D01*
X211402857Y-64525000D01*
X211474285Y-64667857D01*
X211474285Y-64810714D01*
X210760000Y-64953571D01*
X213188571Y-65382142D02*
X213402857Y-65453571D01*
X213760000Y-65453571D01*
X213902857Y-65382142D01*
X213974285Y-65310714D01*
X214045714Y-65167857D01*
X214045714Y-65025000D01*
X213974285Y-64882142D01*
X213902857Y-64810714D01*
X213760000Y-64739285D01*
X213474285Y-64667857D01*
X213331428Y-64596428D01*
X213260000Y-64525000D01*
X213188571Y-64382142D01*
X213188571Y-64239285D01*
X213260000Y-64096428D01*
X213331428Y-64025000D01*
X213474285Y-63953571D01*
X213831428Y-63953571D01*
X214045714Y-64025000D01*
X215260000Y-65382142D02*
X215117142Y-65453571D01*
X214831428Y-65453571D01*
X214688571Y-65382142D01*
X214617142Y-65239285D01*
X214617142Y-64667857D01*
X214688571Y-64525000D01*
X214831428Y-64453571D01*
X215117142Y-64453571D01*
X215260000Y-64525000D01*
X215331428Y-64667857D01*
X215331428Y-64810714D01*
X214617142Y-64953571D01*
X215974285Y-64453571D02*
X215974285Y-65453571D01*
X215974285Y-64596428D02*
X216045714Y-64525000D01*
X216188571Y-64453571D01*
X216402857Y-64453571D01*
X216545714Y-64525000D01*
X216617142Y-64667857D01*
X216617142Y-65453571D01*
X217260000Y-65382142D02*
X217402857Y-65453571D01*
X217688571Y-65453571D01*
X217831428Y-65382142D01*
X217902857Y-65239285D01*
X217902857Y-65167857D01*
X217831428Y-65025000D01*
X217688571Y-64953571D01*
X217474285Y-64953571D01*
X217331428Y-64882142D01*
X217260000Y-64739285D01*
X217260000Y-64667857D01*
X217331428Y-64525000D01*
X217474285Y-64453571D01*
X217688571Y-64453571D01*
X217831428Y-64525000D01*
X218760000Y-65453571D02*
X218617142Y-65382142D01*
X218545714Y-65310714D01*
X218474285Y-65167857D01*
X218474285Y-64739285D01*
X218545714Y-64596428D01*
X218617142Y-64525000D01*
X218760000Y-64453571D01*
X218974285Y-64453571D01*
X219117142Y-64525000D01*
X219188571Y-64596428D01*
X219260000Y-64739285D01*
X219260000Y-65167857D01*
X219188571Y-65310714D01*
X219117142Y-65382142D01*
X218974285Y-65453571D01*
X218760000Y-65453571D01*
X219902857Y-65453571D02*
X219902857Y-64453571D01*
X219902857Y-64739285D02*
X219974285Y-64596428D01*
X220045714Y-64525000D01*
X220188571Y-64453571D01*
X220331428Y-64453571D01*
X137032857Y-57900000D02*
X137175714Y-57971428D01*
X137390000Y-57971428D01*
X137604285Y-57900000D01*
X137747142Y-57757142D01*
X137818571Y-57614285D01*
X137890000Y-57328571D01*
X137890000Y-57114285D01*
X137818571Y-56828571D01*
X137747142Y-56685714D01*
X137604285Y-56542857D01*
X137390000Y-56471428D01*
X137247142Y-56471428D01*
X137032857Y-56542857D01*
X136961428Y-56614285D01*
X136961428Y-57114285D01*
X137247142Y-57114285D01*
X136318571Y-56471428D02*
X136318571Y-57971428D01*
X135461428Y-56471428D01*
X135461428Y-57971428D01*
X134747142Y-56471428D02*
X134747142Y-57971428D01*
X134390000Y-57971428D01*
X134175714Y-57900000D01*
X134032857Y-57757142D01*
X133961428Y-57614285D01*
X133890000Y-57328571D01*
X133890000Y-57114285D01*
X133961428Y-56828571D01*
X134032857Y-56685714D01*
X134175714Y-56542857D01*
X134390000Y-56471428D01*
X134747142Y-56471428D01*
X142970000Y-57971428D02*
X142470000Y-56471428D01*
X141970000Y-57971428D01*
X140612857Y-56614285D02*
X140684285Y-56542857D01*
X140898571Y-56471428D01*
X141041428Y-56471428D01*
X141255714Y-56542857D01*
X141398571Y-56685714D01*
X141470000Y-56828571D01*
X141541428Y-57114285D01*
X141541428Y-57328571D01*
X141470000Y-57614285D01*
X141398571Y-57757142D01*
X141255714Y-57900000D01*
X141041428Y-57971428D01*
X140898571Y-57971428D01*
X140684285Y-57900000D01*
X140612857Y-57828571D01*
X139112857Y-56614285D02*
X139184285Y-56542857D01*
X139398571Y-56471428D01*
X139541428Y-56471428D01*
X139755714Y-56542857D01*
X139898571Y-56685714D01*
X139970000Y-56828571D01*
X140041428Y-57114285D01*
X140041428Y-57328571D01*
X139970000Y-57614285D01*
X139898571Y-57757142D01*
X139755714Y-57900000D01*
X139541428Y-57971428D01*
X139398571Y-57971428D01*
X139184285Y-57900000D01*
X139112857Y-57828571D01*
X185697619Y-56933333D02*
X185078571Y-56933333D01*
X185821428Y-56561904D02*
X185388095Y-57861904D01*
X184954761Y-56561904D01*
X183840476Y-56561904D02*
X184583333Y-56561904D01*
X184211904Y-56561904D02*
X184211904Y-57861904D01*
X184335714Y-57676190D01*
X184459523Y-57552380D01*
X184583333Y-57490476D01*
X182726190Y-57428571D02*
X182726190Y-56561904D01*
X183035714Y-57923809D02*
X183345238Y-56995238D01*
X182540476Y-56995238D01*
X181887619Y-56933333D02*
X181268571Y-56933333D01*
X182011428Y-56561904D02*
X181578095Y-57861904D01*
X181144761Y-56561904D01*
X180030476Y-56561904D02*
X180773333Y-56561904D01*
X180401904Y-56561904D02*
X180401904Y-57861904D01*
X180525714Y-57676190D01*
X180649523Y-57552380D01*
X180773333Y-57490476D01*
X179597142Y-57861904D02*
X178792380Y-57861904D01*
X179225714Y-57366666D01*
X179040000Y-57366666D01*
X178916190Y-57304761D01*
X178854285Y-57242857D01*
X178792380Y-57119047D01*
X178792380Y-56809523D01*
X178854285Y-56685714D01*
X178916190Y-56623809D01*
X179040000Y-56561904D01*
X179411428Y-56561904D01*
X179535238Y-56623809D01*
X179597142Y-56685714D01*
X178077619Y-56933333D02*
X177458571Y-56933333D01*
X178201428Y-56561904D02*
X177768095Y-57861904D01*
X177334761Y-56561904D01*
X176220476Y-56561904D02*
X176963333Y-56561904D01*
X176591904Y-56561904D02*
X176591904Y-57861904D01*
X176715714Y-57676190D01*
X176839523Y-57552380D01*
X176963333Y-57490476D01*
X175725238Y-57738095D02*
X175663333Y-57800000D01*
X175539523Y-57861904D01*
X175230000Y-57861904D01*
X175106190Y-57800000D01*
X175044285Y-57738095D01*
X174982380Y-57614285D01*
X174982380Y-57490476D01*
X175044285Y-57304761D01*
X175787142Y-56561904D01*
X174982380Y-56561904D01*
X174267619Y-56933333D02*
X173648571Y-56933333D01*
X174391428Y-56561904D02*
X173958095Y-57861904D01*
X173524761Y-56561904D01*
X172410476Y-56561904D02*
X173153333Y-56561904D01*
X172781904Y-56561904D02*
X172781904Y-57861904D01*
X172905714Y-57676190D01*
X173029523Y-57552380D01*
X173153333Y-57490476D01*
X171172380Y-56561904D02*
X171915238Y-56561904D01*
X171543809Y-56561904D02*
X171543809Y-57861904D01*
X171667619Y-57676190D01*
X171791428Y-57552380D01*
X171915238Y-57490476D01*
X170457619Y-56933333D02*
X169838571Y-56933333D01*
X170581428Y-56561904D02*
X170148095Y-57861904D01*
X169714761Y-56561904D01*
X168600476Y-56561904D02*
X169343333Y-56561904D01*
X168971904Y-56561904D02*
X168971904Y-57861904D01*
X169095714Y-57676190D01*
X169219523Y-57552380D01*
X169343333Y-57490476D01*
X167795714Y-57861904D02*
X167671904Y-57861904D01*
X167548095Y-57800000D01*
X167486190Y-57738095D01*
X167424285Y-57614285D01*
X167362380Y-57366666D01*
X167362380Y-57057142D01*
X167424285Y-56809523D01*
X167486190Y-56685714D01*
X167548095Y-56623809D01*
X167671904Y-56561904D01*
X167795714Y-56561904D01*
X167919523Y-56623809D01*
X167981428Y-56685714D01*
X168043333Y-56809523D01*
X168105238Y-57057142D01*
X168105238Y-57366666D01*
X168043333Y-57614285D01*
X167981428Y-57738095D01*
X167919523Y-57800000D01*
X167795714Y-57861904D01*
X166028571Y-56933333D02*
X165409523Y-56933333D01*
X166152380Y-56561904D02*
X165719047Y-57861904D01*
X165285714Y-56561904D01*
X164790476Y-56561904D02*
X164542857Y-56561904D01*
X164419047Y-56623809D01*
X164357142Y-56685714D01*
X164233333Y-56871428D01*
X164171428Y-57119047D01*
X164171428Y-57614285D01*
X164233333Y-57738095D01*
X164295238Y-57800000D01*
X164419047Y-57861904D01*
X164666666Y-57861904D01*
X164790476Y-57800000D01*
X164852380Y-57738095D01*
X164914285Y-57614285D01*
X164914285Y-57304761D01*
X164852380Y-57180952D01*
X164790476Y-57119047D01*
X164666666Y-57057142D01*
X164419047Y-57057142D01*
X164295238Y-57119047D01*
X164233333Y-57180952D01*
X164171428Y-57304761D01*
X162218571Y-56933333D02*
X161599523Y-56933333D01*
X162342380Y-56561904D02*
X161909047Y-57861904D01*
X161475714Y-56561904D01*
X160856666Y-57304761D02*
X160980476Y-57366666D01*
X161042380Y-57428571D01*
X161104285Y-57552380D01*
X161104285Y-57614285D01*
X161042380Y-57738095D01*
X160980476Y-57800000D01*
X160856666Y-57861904D01*
X160609047Y-57861904D01*
X160485238Y-57800000D01*
X160423333Y-57738095D01*
X160361428Y-57614285D01*
X160361428Y-57552380D01*
X160423333Y-57428571D01*
X160485238Y-57366666D01*
X160609047Y-57304761D01*
X160856666Y-57304761D01*
X160980476Y-57242857D01*
X161042380Y-57180952D01*
X161104285Y-57057142D01*
X161104285Y-56809523D01*
X161042380Y-56685714D01*
X160980476Y-56623809D01*
X160856666Y-56561904D01*
X160609047Y-56561904D01*
X160485238Y-56623809D01*
X160423333Y-56685714D01*
X160361428Y-56809523D01*
X160361428Y-57057142D01*
X160423333Y-57180952D01*
X160485238Y-57242857D01*
X160609047Y-57304761D01*
X164581428Y-112010000D02*
X165295714Y-112010000D01*
X164438571Y-112438571D02*
X164938571Y-110938571D01*
X165438571Y-112438571D01*
X165938571Y-112438571D02*
X165938571Y-111438571D01*
X165938571Y-111581428D02*
X166010000Y-111510000D01*
X166152857Y-111438571D01*
X166367142Y-111438571D01*
X166510000Y-111510000D01*
X166581428Y-111652857D01*
X166581428Y-112438571D01*
X166581428Y-111652857D02*
X166652857Y-111510000D01*
X166795714Y-111438571D01*
X167010000Y-111438571D01*
X167152857Y-111510000D01*
X167224285Y-111652857D01*
X167224285Y-112438571D01*
X167938571Y-112438571D02*
X167938571Y-110938571D01*
X167938571Y-111510000D02*
X168081428Y-111438571D01*
X168367142Y-111438571D01*
X168510000Y-111510000D01*
X168581428Y-111581428D01*
X168652857Y-111724285D01*
X168652857Y-112152857D01*
X168581428Y-112295714D01*
X168510000Y-112367142D01*
X168367142Y-112438571D01*
X168081428Y-112438571D01*
X167938571Y-112367142D01*
X169295714Y-112438571D02*
X169295714Y-111438571D01*
X169295714Y-110938571D02*
X169224285Y-111010000D01*
X169295714Y-111081428D01*
X169367142Y-111010000D01*
X169295714Y-110938571D01*
X169295714Y-111081428D01*
X170581428Y-112367142D02*
X170438571Y-112438571D01*
X170152857Y-112438571D01*
X170010000Y-112367142D01*
X169938571Y-112224285D01*
X169938571Y-111652857D01*
X170010000Y-111510000D01*
X170152857Y-111438571D01*
X170438571Y-111438571D01*
X170581428Y-111510000D01*
X170652857Y-111652857D01*
X170652857Y-111795714D01*
X169938571Y-111938571D01*
X171295714Y-111438571D02*
X171295714Y-112438571D01*
X171295714Y-111581428D02*
X171367142Y-111510000D01*
X171510000Y-111438571D01*
X171724285Y-111438571D01*
X171867142Y-111510000D01*
X171938571Y-111652857D01*
X171938571Y-112438571D01*
X172438571Y-111438571D02*
X173010000Y-111438571D01*
X172652857Y-110938571D02*
X172652857Y-112224285D01*
X172724285Y-112367142D01*
X172867142Y-112438571D01*
X173010000Y-112438571D01*
X175367142Y-112438571D02*
X174652857Y-112438571D01*
X174652857Y-110938571D01*
X175867142Y-112438571D02*
X175867142Y-111438571D01*
X175867142Y-110938571D02*
X175795714Y-111010000D01*
X175867142Y-111081428D01*
X175938571Y-111010000D01*
X175867142Y-110938571D01*
X175867142Y-111081428D01*
X177224285Y-111438571D02*
X177224285Y-112652857D01*
X177152857Y-112795714D01*
X177081428Y-112867142D01*
X176938571Y-112938571D01*
X176724285Y-112938571D01*
X176581428Y-112867142D01*
X177224285Y-112367142D02*
X177081428Y-112438571D01*
X176795714Y-112438571D01*
X176652857Y-112367142D01*
X176581428Y-112295714D01*
X176510000Y-112152857D01*
X176510000Y-111724285D01*
X176581428Y-111581428D01*
X176652857Y-111510000D01*
X176795714Y-111438571D01*
X177081428Y-111438571D01*
X177224285Y-111510000D01*
X177938571Y-112438571D02*
X177938571Y-110938571D01*
X178581428Y-112438571D02*
X178581428Y-111652857D01*
X178510000Y-111510000D01*
X178367142Y-111438571D01*
X178152857Y-111438571D01*
X178010000Y-111510000D01*
X177938571Y-111581428D01*
X179081428Y-111438571D02*
X179652857Y-111438571D01*
X179295714Y-110938571D02*
X179295714Y-112224285D01*
X179367142Y-112367142D01*
X179510000Y-112438571D01*
X179652857Y-112438571D01*
X182010000Y-112438571D02*
X181295714Y-112438571D01*
X181295714Y-110938571D01*
X182510000Y-111652857D02*
X183010000Y-111652857D01*
X183224285Y-112438571D02*
X182510000Y-112438571D01*
X182510000Y-110938571D01*
X183224285Y-110938571D01*
X183867142Y-112438571D02*
X183867142Y-110938571D01*
X184224285Y-110938571D01*
X184438571Y-111010000D01*
X184581428Y-111152857D01*
X184652857Y-111295714D01*
X184724285Y-111581428D01*
X184724285Y-111795714D01*
X184652857Y-112081428D01*
X184581428Y-112224285D01*
X184438571Y-112367142D01*
X184224285Y-112438571D01*
X183867142Y-112438571D01*
X185295714Y-112367142D02*
X185438571Y-112438571D01*
X185724285Y-112438571D01*
X185867142Y-112367142D01*
X185938571Y-112224285D01*
X185938571Y-112152857D01*
X185867142Y-112010000D01*
X185724285Y-111938571D01*
X185510000Y-111938571D01*
X185367142Y-111867142D01*
X185295714Y-111724285D01*
X185295714Y-111652857D01*
X185367142Y-111510000D01*
X185510000Y-111438571D01*
X185724285Y-111438571D01*
X185867142Y-111510000D01*
X165418571Y-101008571D02*
X165418571Y-99508571D01*
X165990000Y-99508571D01*
X166132857Y-99580000D01*
X166204285Y-99651428D01*
X166275714Y-99794285D01*
X166275714Y-100008571D01*
X166204285Y-100151428D01*
X166132857Y-100222857D01*
X165990000Y-100294285D01*
X165418571Y-100294285D01*
X166918571Y-101008571D02*
X166918571Y-99508571D01*
X167561428Y-101008571D02*
X167561428Y-100222857D01*
X167490000Y-100080000D01*
X167347142Y-100008571D01*
X167132857Y-100008571D01*
X166990000Y-100080000D01*
X166918571Y-100151428D01*
X168490000Y-101008571D02*
X168347142Y-100937142D01*
X168275714Y-100865714D01*
X168204285Y-100722857D01*
X168204285Y-100294285D01*
X168275714Y-100151428D01*
X168347142Y-100080000D01*
X168490000Y-100008571D01*
X168704285Y-100008571D01*
X168847142Y-100080000D01*
X168918571Y-100151428D01*
X168990000Y-100294285D01*
X168990000Y-100722857D01*
X168918571Y-100865714D01*
X168847142Y-100937142D01*
X168704285Y-101008571D01*
X168490000Y-101008571D01*
X169418571Y-100008571D02*
X169990000Y-100008571D01*
X169632857Y-99508571D02*
X169632857Y-100794285D01*
X169704285Y-100937142D01*
X169847142Y-101008571D01*
X169990000Y-101008571D01*
X170704285Y-101008571D02*
X170561428Y-100937142D01*
X170490000Y-100865714D01*
X170418571Y-100722857D01*
X170418571Y-100294285D01*
X170490000Y-100151428D01*
X170561428Y-100080000D01*
X170704285Y-100008571D01*
X170918571Y-100008571D01*
X171061428Y-100080000D01*
X171132857Y-100151428D01*
X171204285Y-100294285D01*
X171204285Y-100722857D01*
X171132857Y-100865714D01*
X171061428Y-100937142D01*
X170918571Y-101008571D01*
X170704285Y-101008571D01*
X173847142Y-101008571D02*
X173347142Y-100294285D01*
X172990000Y-101008571D02*
X172990000Y-99508571D01*
X173561428Y-99508571D01*
X173704285Y-99580000D01*
X173775714Y-99651428D01*
X173847142Y-99794285D01*
X173847142Y-100008571D01*
X173775714Y-100151428D01*
X173704285Y-100222857D01*
X173561428Y-100294285D01*
X172990000Y-100294285D01*
X175061428Y-100937142D02*
X174918571Y-101008571D01*
X174632857Y-101008571D01*
X174490000Y-100937142D01*
X174418571Y-100794285D01*
X174418571Y-100222857D01*
X174490000Y-100080000D01*
X174632857Y-100008571D01*
X174918571Y-100008571D01*
X175061428Y-100080000D01*
X175132857Y-100222857D01*
X175132857Y-100365714D01*
X174418571Y-100508571D01*
X175704285Y-100937142D02*
X175847142Y-101008571D01*
X176132857Y-101008571D01*
X176275714Y-100937142D01*
X176347142Y-100794285D01*
X176347142Y-100722857D01*
X176275714Y-100580000D01*
X176132857Y-100508571D01*
X175918571Y-100508571D01*
X175775714Y-100437142D01*
X175704285Y-100294285D01*
X175704285Y-100222857D01*
X175775714Y-100080000D01*
X175918571Y-100008571D01*
X176132857Y-100008571D01*
X176275714Y-100080000D01*
X176990000Y-101008571D02*
X176990000Y-100008571D01*
X176990000Y-99508571D02*
X176918571Y-99580000D01*
X176990000Y-99651428D01*
X177061428Y-99580000D01*
X176990000Y-99508571D01*
X176990000Y-99651428D01*
X177632857Y-100937142D02*
X177775714Y-101008571D01*
X178061428Y-101008571D01*
X178204285Y-100937142D01*
X178275714Y-100794285D01*
X178275714Y-100722857D01*
X178204285Y-100580000D01*
X178061428Y-100508571D01*
X177847142Y-100508571D01*
X177704285Y-100437142D01*
X177632857Y-100294285D01*
X177632857Y-100222857D01*
X177704285Y-100080000D01*
X177847142Y-100008571D01*
X178061428Y-100008571D01*
X178204285Y-100080000D01*
X178704285Y-100008571D02*
X179275714Y-100008571D01*
X178918571Y-99508571D02*
X178918571Y-100794285D01*
X178990000Y-100937142D01*
X179132857Y-101008571D01*
X179275714Y-101008571D01*
X179990000Y-101008571D02*
X179847142Y-100937142D01*
X179775714Y-100865714D01*
X179704285Y-100722857D01*
X179704285Y-100294285D01*
X179775714Y-100151428D01*
X179847142Y-100080000D01*
X179990000Y-100008571D01*
X180204285Y-100008571D01*
X180347142Y-100080000D01*
X180418571Y-100151428D01*
X180490000Y-100294285D01*
X180490000Y-100722857D01*
X180418571Y-100865714D01*
X180347142Y-100937142D01*
X180204285Y-101008571D01*
X179990000Y-101008571D01*
X181132857Y-101008571D02*
X181132857Y-100008571D01*
X181132857Y-100294285D02*
X181204285Y-100151428D01*
X181275714Y-100080000D01*
X181418571Y-100008571D01*
X181561428Y-100008571D01*
X181990000Y-100937142D02*
X182132857Y-101008571D01*
X182418571Y-101008571D01*
X182561428Y-100937142D01*
X182632857Y-100794285D01*
X182632857Y-100722857D01*
X182561428Y-100580000D01*
X182418571Y-100508571D01*
X182204285Y-100508571D01*
X182061428Y-100437142D01*
X181990000Y-100294285D01*
X181990000Y-100222857D01*
X182061428Y-100080000D01*
X182204285Y-100008571D01*
X182418571Y-100008571D01*
X182561428Y-100080000D01*
X134028571Y-87748571D02*
X133314285Y-88248571D01*
X134028571Y-88605714D02*
X132528571Y-88605714D01*
X132528571Y-88034285D01*
X132600000Y-87891428D01*
X132671428Y-87820000D01*
X132814285Y-87748571D01*
X133028571Y-87748571D01*
X133171428Y-87820000D01*
X133242857Y-87891428D01*
X133314285Y-88034285D01*
X133314285Y-88605714D01*
X133957142Y-86534285D02*
X134028571Y-86677142D01*
X134028571Y-86962857D01*
X133957142Y-87105714D01*
X133814285Y-87177142D01*
X133242857Y-87177142D01*
X133100000Y-87105714D01*
X133028571Y-86962857D01*
X133028571Y-86677142D01*
X133100000Y-86534285D01*
X133242857Y-86462857D01*
X133385714Y-86462857D01*
X133528571Y-87177142D01*
X133957142Y-85891428D02*
X134028571Y-85748571D01*
X134028571Y-85462857D01*
X133957142Y-85320000D01*
X133814285Y-85248571D01*
X133742857Y-85248571D01*
X133600000Y-85320000D01*
X133528571Y-85462857D01*
X133528571Y-85677142D01*
X133457142Y-85820000D01*
X133314285Y-85891428D01*
X133242857Y-85891428D01*
X133100000Y-85820000D01*
X133028571Y-85677142D01*
X133028571Y-85462857D01*
X133100000Y-85320000D01*
X134028571Y-84605714D02*
X133028571Y-84605714D01*
X132528571Y-84605714D02*
X132600000Y-84677142D01*
X132671428Y-84605714D01*
X132600000Y-84534285D01*
X132528571Y-84605714D01*
X132671428Y-84605714D01*
X133957142Y-83962857D02*
X134028571Y-83820000D01*
X134028571Y-83534285D01*
X133957142Y-83391428D01*
X133814285Y-83320000D01*
X133742857Y-83320000D01*
X133600000Y-83391428D01*
X133528571Y-83534285D01*
X133528571Y-83748571D01*
X133457142Y-83891428D01*
X133314285Y-83962857D01*
X133242857Y-83962857D01*
X133100000Y-83891428D01*
X133028571Y-83748571D01*
X133028571Y-83534285D01*
X133100000Y-83391428D01*
X133028571Y-82891428D02*
X133028571Y-82320000D01*
X132528571Y-82677142D02*
X133814285Y-82677142D01*
X133957142Y-82605714D01*
X134028571Y-82462857D01*
X134028571Y-82320000D01*
X134028571Y-81605714D02*
X133957142Y-81748571D01*
X133885714Y-81820000D01*
X133742857Y-81891428D01*
X133314285Y-81891428D01*
X133171428Y-81820000D01*
X133100000Y-81748571D01*
X133028571Y-81605714D01*
X133028571Y-81391428D01*
X133100000Y-81248571D01*
X133171428Y-81177142D01*
X133314285Y-81105714D01*
X133742857Y-81105714D01*
X133885714Y-81177142D01*
X133957142Y-81248571D01*
X134028571Y-81391428D01*
X134028571Y-81605714D01*
X134028571Y-80462857D02*
X133028571Y-80462857D01*
X133314285Y-80462857D02*
X133171428Y-80391428D01*
X133100000Y-80320000D01*
X133028571Y-80177142D01*
X133028571Y-80034285D01*
X133957142Y-79605714D02*
X134028571Y-79462857D01*
X134028571Y-79177142D01*
X133957142Y-79034285D01*
X133814285Y-78962857D01*
X133742857Y-78962857D01*
X133600000Y-79034285D01*
X133528571Y-79177142D01*
X133528571Y-79391428D01*
X133457142Y-79534285D01*
X133314285Y-79605714D01*
X133242857Y-79605714D01*
X133100000Y-79534285D01*
X133028571Y-79391428D01*
X133028571Y-79177142D01*
X133100000Y-79034285D01*
D11*
G04 #@! TO.C,D1*
X222230000Y-105135000D02*
X222230000Y-108225000D01*
X227290000Y-106680000D02*
G75*
G03*
X227290000Y-106680000I-2500000J0D01*
G01*
X227780000Y-106680462D02*
G75*
G03*
X222230000Y-105135170I-2990000J462D01*
G01*
X227780000Y-106679538D02*
G75*
G02*
X222230000Y-108224830I-2990000J-462D01*
G01*
G04 #@! TO.C,D2*
X198570000Y-111759538D02*
G75*
G02*
X193020000Y-113304830I-2990000J-462D01*
G01*
X198570000Y-111760462D02*
G75*
G03*
X193020000Y-110215170I-2990000J462D01*
G01*
X198080000Y-111760000D02*
G75*
G03*
X198080000Y-111760000I-2500000J0D01*
G01*
X193020000Y-110215000D02*
X193020000Y-113305000D01*
G04 #@! TO.C,D3*
X153650000Y-110215000D02*
X153650000Y-113305000D01*
X158710000Y-111760000D02*
G75*
G03*
X158710000Y-111760000I-2500000J0D01*
G01*
X159200000Y-111760462D02*
G75*
G03*
X153650000Y-110215170I-2990000J462D01*
G01*
X159200000Y-111759538D02*
G75*
G02*
X153650000Y-113304830I-2990000J-462D01*
G01*
G04 #@! TO.C,D4*
X129990000Y-106679538D02*
G75*
G02*
X124440000Y-108224830I-2990000J-462D01*
G01*
X129990000Y-106680462D02*
G75*
G03*
X124440000Y-105135170I-2990000J462D01*
G01*
X129500000Y-106680000D02*
G75*
G03*
X129500000Y-106680000I-2500000J0D01*
G01*
X124440000Y-105135000D02*
X124440000Y-108225000D01*
G04 #@! TO.C,J1*
X184930000Y-59970000D02*
X184530000Y-59970000D01*
X184930000Y-60610000D02*
X184930000Y-59970000D01*
X163025000Y-63829000D02*
X163154000Y-63701000D01*
X160810000Y-66045000D02*
X160904000Y-65951000D01*
X162855000Y-63589000D02*
X162949000Y-63496000D01*
X160605000Y-65839000D02*
X160734000Y-65711000D01*
X166525000Y-63829000D02*
X166654000Y-63701000D01*
X164310000Y-66045000D02*
X164404000Y-65951000D01*
X166355000Y-63589000D02*
X166449000Y-63496000D01*
X164105000Y-65839000D02*
X164234000Y-65711000D01*
X170025000Y-63829000D02*
X170154000Y-63701000D01*
X167810000Y-66045000D02*
X167904000Y-65951000D01*
X169855000Y-63589000D02*
X169949000Y-63496000D01*
X167605000Y-65839000D02*
X167734000Y-65711000D01*
X173525000Y-63829000D02*
X173654000Y-63701000D01*
X171310000Y-66045000D02*
X171404000Y-65951000D01*
X173355000Y-63589000D02*
X173449000Y-63496000D01*
X171105000Y-65839000D02*
X171234000Y-65711000D01*
X177025000Y-63829000D02*
X177154000Y-63701000D01*
X174810000Y-66045000D02*
X174904000Y-65951000D01*
X176855000Y-63589000D02*
X176949000Y-63496000D01*
X174605000Y-65839000D02*
X174734000Y-65711000D01*
X180525000Y-63829000D02*
X180654000Y-63701000D01*
X178310000Y-66045000D02*
X178404000Y-65951000D01*
X180355000Y-63589000D02*
X180449000Y-63496000D01*
X178105000Y-65839000D02*
X178234000Y-65711000D01*
X160070000Y-67930000D02*
X160070000Y-60210000D01*
X184690000Y-67930000D02*
X184690000Y-60210000D01*
X184690000Y-60210000D02*
X160070000Y-60210000D01*
X184690000Y-67930000D02*
X160070000Y-67930000D01*
X184690000Y-61770000D02*
X160070000Y-61770000D01*
X184690000Y-60670000D02*
X160070000Y-60670000D01*
X163560000Y-64770000D02*
G75*
G03*
X163560000Y-64770000I-1680000J0D01*
G01*
X167060000Y-64770000D02*
G75*
G03*
X167060000Y-64770000I-1680000J0D01*
G01*
X170560000Y-64770000D02*
G75*
G03*
X170560000Y-64770000I-1680000J0D01*
G01*
X174060000Y-64770000D02*
G75*
G03*
X174060000Y-64770000I-1680000J0D01*
G01*
X177560000Y-64770000D02*
G75*
G03*
X177560000Y-64770000I-1680000J0D01*
G01*
X181060000Y-64770000D02*
G75*
G03*
X181060000Y-64770000I-1680000J0D01*
G01*
X181989736Y-63345279D02*
G75*
G02*
X182880000Y-63090000I890264J-1424721D01*
G01*
X181454495Y-65660193D02*
G75*
G02*
X181455000Y-63879000I1425505J890193D01*
G01*
X183769894Y-66195358D02*
G75*
G02*
X182014000Y-66210000I-889894J1425358D01*
G01*
X184305358Y-63880106D02*
G75*
G02*
X184320000Y-65636000I-1425358J-889894D01*
G01*
X182851326Y-63089901D02*
G75*
G02*
X183746000Y-63330000I28674J-1680099D01*
G01*
G04 #@! TO.C,J2*
X141750000Y-59970000D02*
X141350000Y-59970000D01*
X141750000Y-60610000D02*
X141750000Y-59970000D01*
X137345000Y-63829000D02*
X137474000Y-63701000D01*
X135130000Y-66045000D02*
X135224000Y-65951000D01*
X137175000Y-63589000D02*
X137269000Y-63496000D01*
X134925000Y-65839000D02*
X135054000Y-65711000D01*
X134390000Y-67930000D02*
X134390000Y-60210000D01*
X141510000Y-67930000D02*
X141510000Y-60210000D01*
X141510000Y-60210000D02*
X134390000Y-60210000D01*
X141510000Y-67930000D02*
X134390000Y-67930000D01*
X141510000Y-61770000D02*
X134390000Y-61770000D01*
X141510000Y-60670000D02*
X134390000Y-60670000D01*
X137880000Y-64770000D02*
G75*
G03*
X137880000Y-64770000I-1680000J0D01*
G01*
X138809736Y-63345279D02*
G75*
G02*
X139700000Y-63090000I890264J-1424721D01*
G01*
X138274495Y-65660193D02*
G75*
G02*
X138275000Y-63879000I1425505J890193D01*
G01*
X140589894Y-66195358D02*
G75*
G02*
X138834000Y-66210000I-889894J1425358D01*
G01*
X141125358Y-63880106D02*
G75*
G02*
X141140000Y-65636000I-1425358J-889894D01*
G01*
X139671326Y-63089901D02*
G75*
G02*
X140566000Y-63330000I28674J-1680099D01*
G01*
G04 #@! TO.C,R1*
X208280000Y-79780000D02*
X208280000Y-80550000D01*
X208280000Y-87860000D02*
X208280000Y-87090000D01*
X206910000Y-80550000D02*
X206910000Y-87090000D01*
X209650000Y-80550000D02*
X206910000Y-80550000D01*
X209650000Y-87090000D02*
X209650000Y-80550000D01*
X206910000Y-87090000D02*
X209650000Y-87090000D01*
G04 #@! TO.C,R2*
X216630000Y-108050000D02*
X216630000Y-105310000D01*
X216630000Y-105310000D02*
X210090000Y-105310000D01*
X210090000Y-105310000D02*
X210090000Y-108050000D01*
X210090000Y-108050000D02*
X216630000Y-108050000D01*
X217400000Y-106680000D02*
X216630000Y-106680000D01*
X209320000Y-106680000D02*
X210090000Y-106680000D01*
G04 #@! TO.C,R3*
X195480000Y-87090000D02*
X198220000Y-87090000D01*
X198220000Y-87090000D02*
X198220000Y-80550000D01*
X198220000Y-80550000D02*
X195480000Y-80550000D01*
X195480000Y-80550000D02*
X195480000Y-87090000D01*
X196850000Y-87860000D02*
X196850000Y-87090000D01*
X196850000Y-79780000D02*
X196850000Y-80550000D01*
G04 #@! TO.C,R4*
X196620000Y-106680000D02*
X197390000Y-106680000D01*
X204700000Y-106680000D02*
X203930000Y-106680000D01*
X197390000Y-108050000D02*
X203930000Y-108050000D01*
X197390000Y-105310000D02*
X197390000Y-108050000D01*
X203930000Y-105310000D02*
X197390000Y-105310000D01*
X203930000Y-108050000D02*
X203930000Y-105310000D01*
G04 #@! TO.C,R5*
X185420000Y-79780000D02*
X185420000Y-80550000D01*
X185420000Y-87860000D02*
X185420000Y-87090000D01*
X184050000Y-80550000D02*
X184050000Y-87090000D01*
X186790000Y-80550000D02*
X184050000Y-80550000D01*
X186790000Y-87090000D02*
X186790000Y-80550000D01*
X184050000Y-87090000D02*
X186790000Y-87090000D01*
G04 #@! TO.C,R6*
X191230000Y-108050000D02*
X191230000Y-105310000D01*
X191230000Y-105310000D02*
X184690000Y-105310000D01*
X184690000Y-105310000D02*
X184690000Y-108050000D01*
X184690000Y-108050000D02*
X191230000Y-108050000D01*
X192000000Y-106680000D02*
X191230000Y-106680000D01*
X183920000Y-106680000D02*
X184690000Y-106680000D01*
G04 #@! TO.C,R7*
X172620000Y-87090000D02*
X175360000Y-87090000D01*
X175360000Y-87090000D02*
X175360000Y-80550000D01*
X175360000Y-80550000D02*
X172620000Y-80550000D01*
X172620000Y-80550000D02*
X172620000Y-87090000D01*
X173990000Y-87860000D02*
X173990000Y-87090000D01*
X173990000Y-79780000D02*
X173990000Y-80550000D01*
G04 #@! TO.C,R8*
X171220000Y-106680000D02*
X171990000Y-106680000D01*
X179300000Y-106680000D02*
X178530000Y-106680000D01*
X171990000Y-108050000D02*
X178530000Y-108050000D01*
X171990000Y-105310000D02*
X171990000Y-108050000D01*
X178530000Y-105310000D02*
X171990000Y-105310000D01*
X178530000Y-108050000D02*
X178530000Y-105310000D01*
G04 #@! TO.C,R9*
X162560000Y-79780000D02*
X162560000Y-80550000D01*
X162560000Y-87860000D02*
X162560000Y-87090000D01*
X161190000Y-80550000D02*
X161190000Y-87090000D01*
X163930000Y-80550000D02*
X161190000Y-80550000D01*
X163930000Y-87090000D02*
X163930000Y-80550000D01*
X161190000Y-87090000D02*
X163930000Y-87090000D01*
G04 #@! TO.C,R10*
X165830000Y-108050000D02*
X165830000Y-105310000D01*
X165830000Y-105310000D02*
X159290000Y-105310000D01*
X159290000Y-105310000D02*
X159290000Y-108050000D01*
X159290000Y-108050000D02*
X165830000Y-108050000D01*
X166600000Y-106680000D02*
X165830000Y-106680000D01*
X158520000Y-106680000D02*
X159290000Y-106680000D01*
G04 #@! TO.C,R11*
X149760000Y-87090000D02*
X152500000Y-87090000D01*
X152500000Y-87090000D02*
X152500000Y-80550000D01*
X152500000Y-80550000D02*
X149760000Y-80550000D01*
X149760000Y-80550000D02*
X149760000Y-87090000D01*
X151130000Y-87860000D02*
X151130000Y-87090000D01*
X151130000Y-79780000D02*
X151130000Y-80550000D01*
G04 #@! TO.C,R12*
X145820000Y-106680000D02*
X146590000Y-106680000D01*
X153900000Y-106680000D02*
X153130000Y-106680000D01*
X146590000Y-108050000D02*
X153130000Y-108050000D01*
X146590000Y-105310000D02*
X146590000Y-108050000D01*
X153130000Y-105310000D02*
X146590000Y-105310000D01*
X153130000Y-108050000D02*
X153130000Y-105310000D01*
G04 #@! TO.C,R13*
X139700000Y-79780000D02*
X139700000Y-80550000D01*
X139700000Y-87860000D02*
X139700000Y-87090000D01*
X138330000Y-80550000D02*
X138330000Y-87090000D01*
X141070000Y-80550000D02*
X138330000Y-80550000D01*
X141070000Y-87090000D02*
X141070000Y-80550000D01*
X138330000Y-87090000D02*
X141070000Y-87090000D01*
G04 #@! TO.C,R14*
X140430000Y-108050000D02*
X140430000Y-105310000D01*
X140430000Y-105310000D02*
X133890000Y-105310000D01*
X133890000Y-105310000D02*
X133890000Y-108050000D01*
X133890000Y-108050000D02*
X140430000Y-108050000D01*
X141200000Y-106680000D02*
X140430000Y-106680000D01*
X133120000Y-106680000D02*
X133890000Y-106680000D01*
G04 #@! TO.C,D1*
D12*
X224051904Y-103172380D02*
X224051904Y-102172380D01*
X224290000Y-102172380D01*
X224432857Y-102220000D01*
X224528095Y-102315238D01*
X224575714Y-102410476D01*
X224623333Y-102600952D01*
X224623333Y-102743809D01*
X224575714Y-102934285D01*
X224528095Y-103029523D01*
X224432857Y-103124761D01*
X224290000Y-103172380D01*
X224051904Y-103172380D01*
X225575714Y-103172380D02*
X225004285Y-103172380D01*
X225290000Y-103172380D02*
X225290000Y-102172380D01*
X225194761Y-102315238D01*
X225099523Y-102410476D01*
X225004285Y-102458095D01*
G04 #@! TO.C,D2*
X194841904Y-108252380D02*
X194841904Y-107252380D01*
X195080000Y-107252380D01*
X195222857Y-107300000D01*
X195318095Y-107395238D01*
X195365714Y-107490476D01*
X195413333Y-107680952D01*
X195413333Y-107823809D01*
X195365714Y-108014285D01*
X195318095Y-108109523D01*
X195222857Y-108204761D01*
X195080000Y-108252380D01*
X194841904Y-108252380D01*
X195794285Y-107347619D02*
X195841904Y-107300000D01*
X195937142Y-107252380D01*
X196175238Y-107252380D01*
X196270476Y-107300000D01*
X196318095Y-107347619D01*
X196365714Y-107442857D01*
X196365714Y-107538095D01*
X196318095Y-107680952D01*
X195746666Y-108252380D01*
X196365714Y-108252380D01*
G04 #@! TO.C,D3*
X155471904Y-108252380D02*
X155471904Y-107252380D01*
X155710000Y-107252380D01*
X155852857Y-107300000D01*
X155948095Y-107395238D01*
X155995714Y-107490476D01*
X156043333Y-107680952D01*
X156043333Y-107823809D01*
X155995714Y-108014285D01*
X155948095Y-108109523D01*
X155852857Y-108204761D01*
X155710000Y-108252380D01*
X155471904Y-108252380D01*
X156376666Y-107252380D02*
X156995714Y-107252380D01*
X156662380Y-107633333D01*
X156805238Y-107633333D01*
X156900476Y-107680952D01*
X156948095Y-107728571D01*
X156995714Y-107823809D01*
X156995714Y-108061904D01*
X156948095Y-108157142D01*
X156900476Y-108204761D01*
X156805238Y-108252380D01*
X156519523Y-108252380D01*
X156424285Y-108204761D01*
X156376666Y-108157142D01*
G04 #@! TO.C,D4*
X126261904Y-103172380D02*
X126261904Y-102172380D01*
X126500000Y-102172380D01*
X126642857Y-102220000D01*
X126738095Y-102315238D01*
X126785714Y-102410476D01*
X126833333Y-102600952D01*
X126833333Y-102743809D01*
X126785714Y-102934285D01*
X126738095Y-103029523D01*
X126642857Y-103124761D01*
X126500000Y-103172380D01*
X126261904Y-103172380D01*
X127690476Y-102505714D02*
X127690476Y-103172380D01*
X127452380Y-102124761D02*
X127214285Y-102839047D01*
X127833333Y-102839047D01*
G04 #@! TO.C,J1*
X172046666Y-68382380D02*
X172046666Y-69096666D01*
X171999047Y-69239523D01*
X171903809Y-69334761D01*
X171760952Y-69382380D01*
X171665714Y-69382380D01*
X173046666Y-69382380D02*
X172475238Y-69382380D01*
X172760952Y-69382380D02*
X172760952Y-68382380D01*
X172665714Y-68525238D01*
X172570476Y-68620476D01*
X172475238Y-68668095D01*
G04 #@! TO.C,J2*
X137616666Y-68382380D02*
X137616666Y-69096666D01*
X137569047Y-69239523D01*
X137473809Y-69334761D01*
X137330952Y-69382380D01*
X137235714Y-69382380D01*
X138045238Y-68477619D02*
X138092857Y-68430000D01*
X138188095Y-68382380D01*
X138426190Y-68382380D01*
X138521428Y-68430000D01*
X138569047Y-68477619D01*
X138616666Y-68572857D01*
X138616666Y-68668095D01*
X138569047Y-68810952D01*
X137997619Y-69382380D01*
X138616666Y-69382380D01*
G04 #@! TO.C,R1*
X206362380Y-83986666D02*
X205886190Y-84320000D01*
X206362380Y-84558095D02*
X205362380Y-84558095D01*
X205362380Y-84177142D01*
X205410000Y-84081904D01*
X205457619Y-84034285D01*
X205552857Y-83986666D01*
X205695714Y-83986666D01*
X205790952Y-84034285D01*
X205838571Y-84081904D01*
X205886190Y-84177142D01*
X205886190Y-84558095D01*
X206362380Y-83034285D02*
X206362380Y-83605714D01*
X206362380Y-83320000D02*
X205362380Y-83320000D01*
X205505238Y-83415238D01*
X205600476Y-83510476D01*
X205648095Y-83605714D01*
G04 #@! TO.C,R2*
X213193333Y-109502380D02*
X212860000Y-109026190D01*
X212621904Y-109502380D02*
X212621904Y-108502380D01*
X213002857Y-108502380D01*
X213098095Y-108550000D01*
X213145714Y-108597619D01*
X213193333Y-108692857D01*
X213193333Y-108835714D01*
X213145714Y-108930952D01*
X213098095Y-108978571D01*
X213002857Y-109026190D01*
X212621904Y-109026190D01*
X213574285Y-108597619D02*
X213621904Y-108550000D01*
X213717142Y-108502380D01*
X213955238Y-108502380D01*
X214050476Y-108550000D01*
X214098095Y-108597619D01*
X214145714Y-108692857D01*
X214145714Y-108788095D01*
X214098095Y-108930952D01*
X213526666Y-109502380D01*
X214145714Y-109502380D01*
G04 #@! TO.C,R3*
X194932380Y-83986666D02*
X194456190Y-84320000D01*
X194932380Y-84558095D02*
X193932380Y-84558095D01*
X193932380Y-84177142D01*
X193980000Y-84081904D01*
X194027619Y-84034285D01*
X194122857Y-83986666D01*
X194265714Y-83986666D01*
X194360952Y-84034285D01*
X194408571Y-84081904D01*
X194456190Y-84177142D01*
X194456190Y-84558095D01*
X193932380Y-83653333D02*
X193932380Y-83034285D01*
X194313333Y-83367619D01*
X194313333Y-83224761D01*
X194360952Y-83129523D01*
X194408571Y-83081904D01*
X194503809Y-83034285D01*
X194741904Y-83034285D01*
X194837142Y-83081904D01*
X194884761Y-83129523D01*
X194932380Y-83224761D01*
X194932380Y-83510476D01*
X194884761Y-83605714D01*
X194837142Y-83653333D01*
G04 #@! TO.C,R4*
X200493333Y-109502380D02*
X200160000Y-109026190D01*
X199921904Y-109502380D02*
X199921904Y-108502380D01*
X200302857Y-108502380D01*
X200398095Y-108550000D01*
X200445714Y-108597619D01*
X200493333Y-108692857D01*
X200493333Y-108835714D01*
X200445714Y-108930952D01*
X200398095Y-108978571D01*
X200302857Y-109026190D01*
X199921904Y-109026190D01*
X201350476Y-108835714D02*
X201350476Y-109502380D01*
X201112380Y-108454761D02*
X200874285Y-109169047D01*
X201493333Y-109169047D01*
G04 #@! TO.C,R5*
X183502380Y-83986666D02*
X183026190Y-84320000D01*
X183502380Y-84558095D02*
X182502380Y-84558095D01*
X182502380Y-84177142D01*
X182550000Y-84081904D01*
X182597619Y-84034285D01*
X182692857Y-83986666D01*
X182835714Y-83986666D01*
X182930952Y-84034285D01*
X182978571Y-84081904D01*
X183026190Y-84177142D01*
X183026190Y-84558095D01*
X182502380Y-83081904D02*
X182502380Y-83558095D01*
X182978571Y-83605714D01*
X182930952Y-83558095D01*
X182883333Y-83462857D01*
X182883333Y-83224761D01*
X182930952Y-83129523D01*
X182978571Y-83081904D01*
X183073809Y-83034285D01*
X183311904Y-83034285D01*
X183407142Y-83081904D01*
X183454761Y-83129523D01*
X183502380Y-83224761D01*
X183502380Y-83462857D01*
X183454761Y-83558095D01*
X183407142Y-83605714D01*
G04 #@! TO.C,R6*
X187793333Y-109502380D02*
X187460000Y-109026190D01*
X187221904Y-109502380D02*
X187221904Y-108502380D01*
X187602857Y-108502380D01*
X187698095Y-108550000D01*
X187745714Y-108597619D01*
X187793333Y-108692857D01*
X187793333Y-108835714D01*
X187745714Y-108930952D01*
X187698095Y-108978571D01*
X187602857Y-109026190D01*
X187221904Y-109026190D01*
X188650476Y-108502380D02*
X188460000Y-108502380D01*
X188364761Y-108550000D01*
X188317142Y-108597619D01*
X188221904Y-108740476D01*
X188174285Y-108930952D01*
X188174285Y-109311904D01*
X188221904Y-109407142D01*
X188269523Y-109454761D01*
X188364761Y-109502380D01*
X188555238Y-109502380D01*
X188650476Y-109454761D01*
X188698095Y-109407142D01*
X188745714Y-109311904D01*
X188745714Y-109073809D01*
X188698095Y-108978571D01*
X188650476Y-108930952D01*
X188555238Y-108883333D01*
X188364761Y-108883333D01*
X188269523Y-108930952D01*
X188221904Y-108978571D01*
X188174285Y-109073809D01*
G04 #@! TO.C,R7*
X172072380Y-83986666D02*
X171596190Y-84320000D01*
X172072380Y-84558095D02*
X171072380Y-84558095D01*
X171072380Y-84177142D01*
X171120000Y-84081904D01*
X171167619Y-84034285D01*
X171262857Y-83986666D01*
X171405714Y-83986666D01*
X171500952Y-84034285D01*
X171548571Y-84081904D01*
X171596190Y-84177142D01*
X171596190Y-84558095D01*
X171072380Y-83653333D02*
X171072380Y-82986666D01*
X172072380Y-83415238D01*
G04 #@! TO.C,R8*
X175093333Y-109502380D02*
X174760000Y-109026190D01*
X174521904Y-109502380D02*
X174521904Y-108502380D01*
X174902857Y-108502380D01*
X174998095Y-108550000D01*
X175045714Y-108597619D01*
X175093333Y-108692857D01*
X175093333Y-108835714D01*
X175045714Y-108930952D01*
X174998095Y-108978571D01*
X174902857Y-109026190D01*
X174521904Y-109026190D01*
X175664761Y-108930952D02*
X175569523Y-108883333D01*
X175521904Y-108835714D01*
X175474285Y-108740476D01*
X175474285Y-108692857D01*
X175521904Y-108597619D01*
X175569523Y-108550000D01*
X175664761Y-108502380D01*
X175855238Y-108502380D01*
X175950476Y-108550000D01*
X175998095Y-108597619D01*
X176045714Y-108692857D01*
X176045714Y-108740476D01*
X175998095Y-108835714D01*
X175950476Y-108883333D01*
X175855238Y-108930952D01*
X175664761Y-108930952D01*
X175569523Y-108978571D01*
X175521904Y-109026190D01*
X175474285Y-109121428D01*
X175474285Y-109311904D01*
X175521904Y-109407142D01*
X175569523Y-109454761D01*
X175664761Y-109502380D01*
X175855238Y-109502380D01*
X175950476Y-109454761D01*
X175998095Y-109407142D01*
X176045714Y-109311904D01*
X176045714Y-109121428D01*
X175998095Y-109026190D01*
X175950476Y-108978571D01*
X175855238Y-108930952D01*
G04 #@! TO.C,R9*
X160642380Y-83986666D02*
X160166190Y-84320000D01*
X160642380Y-84558095D02*
X159642380Y-84558095D01*
X159642380Y-84177142D01*
X159690000Y-84081904D01*
X159737619Y-84034285D01*
X159832857Y-83986666D01*
X159975714Y-83986666D01*
X160070952Y-84034285D01*
X160118571Y-84081904D01*
X160166190Y-84177142D01*
X160166190Y-84558095D01*
X160642380Y-83510476D02*
X160642380Y-83320000D01*
X160594761Y-83224761D01*
X160547142Y-83177142D01*
X160404285Y-83081904D01*
X160213809Y-83034285D01*
X159832857Y-83034285D01*
X159737619Y-83081904D01*
X159690000Y-83129523D01*
X159642380Y-83224761D01*
X159642380Y-83415238D01*
X159690000Y-83510476D01*
X159737619Y-83558095D01*
X159832857Y-83605714D01*
X160070952Y-83605714D01*
X160166190Y-83558095D01*
X160213809Y-83510476D01*
X160261428Y-83415238D01*
X160261428Y-83224761D01*
X160213809Y-83129523D01*
X160166190Y-83081904D01*
X160070952Y-83034285D01*
G04 #@! TO.C,R10*
X161917142Y-109502380D02*
X161583809Y-109026190D01*
X161345714Y-109502380D02*
X161345714Y-108502380D01*
X161726666Y-108502380D01*
X161821904Y-108550000D01*
X161869523Y-108597619D01*
X161917142Y-108692857D01*
X161917142Y-108835714D01*
X161869523Y-108930952D01*
X161821904Y-108978571D01*
X161726666Y-109026190D01*
X161345714Y-109026190D01*
X162869523Y-109502380D02*
X162298095Y-109502380D01*
X162583809Y-109502380D02*
X162583809Y-108502380D01*
X162488571Y-108645238D01*
X162393333Y-108740476D01*
X162298095Y-108788095D01*
X163488571Y-108502380D02*
X163583809Y-108502380D01*
X163679047Y-108550000D01*
X163726666Y-108597619D01*
X163774285Y-108692857D01*
X163821904Y-108883333D01*
X163821904Y-109121428D01*
X163774285Y-109311904D01*
X163726666Y-109407142D01*
X163679047Y-109454761D01*
X163583809Y-109502380D01*
X163488571Y-109502380D01*
X163393333Y-109454761D01*
X163345714Y-109407142D01*
X163298095Y-109311904D01*
X163250476Y-109121428D01*
X163250476Y-108883333D01*
X163298095Y-108692857D01*
X163345714Y-108597619D01*
X163393333Y-108550000D01*
X163488571Y-108502380D01*
G04 #@! TO.C,R11*
X149212380Y-84462857D02*
X148736190Y-84796190D01*
X149212380Y-85034285D02*
X148212380Y-85034285D01*
X148212380Y-84653333D01*
X148260000Y-84558095D01*
X148307619Y-84510476D01*
X148402857Y-84462857D01*
X148545714Y-84462857D01*
X148640952Y-84510476D01*
X148688571Y-84558095D01*
X148736190Y-84653333D01*
X148736190Y-85034285D01*
X149212380Y-83510476D02*
X149212380Y-84081904D01*
X149212380Y-83796190D02*
X148212380Y-83796190D01*
X148355238Y-83891428D01*
X148450476Y-83986666D01*
X148498095Y-84081904D01*
X149212380Y-82558095D02*
X149212380Y-83129523D01*
X149212380Y-82843809D02*
X148212380Y-82843809D01*
X148355238Y-82939047D01*
X148450476Y-83034285D01*
X148498095Y-83129523D01*
G04 #@! TO.C,R12*
X149217142Y-109502380D02*
X148883809Y-109026190D01*
X148645714Y-109502380D02*
X148645714Y-108502380D01*
X149026666Y-108502380D01*
X149121904Y-108550000D01*
X149169523Y-108597619D01*
X149217142Y-108692857D01*
X149217142Y-108835714D01*
X149169523Y-108930952D01*
X149121904Y-108978571D01*
X149026666Y-109026190D01*
X148645714Y-109026190D01*
X150169523Y-109502380D02*
X149598095Y-109502380D01*
X149883809Y-109502380D02*
X149883809Y-108502380D01*
X149788571Y-108645238D01*
X149693333Y-108740476D01*
X149598095Y-108788095D01*
X150550476Y-108597619D02*
X150598095Y-108550000D01*
X150693333Y-108502380D01*
X150931428Y-108502380D01*
X151026666Y-108550000D01*
X151074285Y-108597619D01*
X151121904Y-108692857D01*
X151121904Y-108788095D01*
X151074285Y-108930952D01*
X150502857Y-109502380D01*
X151121904Y-109502380D01*
G04 #@! TO.C,R13*
X137782380Y-84462857D02*
X137306190Y-84796190D01*
X137782380Y-85034285D02*
X136782380Y-85034285D01*
X136782380Y-84653333D01*
X136830000Y-84558095D01*
X136877619Y-84510476D01*
X136972857Y-84462857D01*
X137115714Y-84462857D01*
X137210952Y-84510476D01*
X137258571Y-84558095D01*
X137306190Y-84653333D01*
X137306190Y-85034285D01*
X137782380Y-83510476D02*
X137782380Y-84081904D01*
X137782380Y-83796190D02*
X136782380Y-83796190D01*
X136925238Y-83891428D01*
X137020476Y-83986666D01*
X137068095Y-84081904D01*
X136782380Y-83177142D02*
X136782380Y-82558095D01*
X137163333Y-82891428D01*
X137163333Y-82748571D01*
X137210952Y-82653333D01*
X137258571Y-82605714D01*
X137353809Y-82558095D01*
X137591904Y-82558095D01*
X137687142Y-82605714D01*
X137734761Y-82653333D01*
X137782380Y-82748571D01*
X137782380Y-83034285D01*
X137734761Y-83129523D01*
X137687142Y-83177142D01*
G04 #@! TO.C,R14*
X136517142Y-109502380D02*
X136183809Y-109026190D01*
X135945714Y-109502380D02*
X135945714Y-108502380D01*
X136326666Y-108502380D01*
X136421904Y-108550000D01*
X136469523Y-108597619D01*
X136517142Y-108692857D01*
X136517142Y-108835714D01*
X136469523Y-108930952D01*
X136421904Y-108978571D01*
X136326666Y-109026190D01*
X135945714Y-109026190D01*
X137469523Y-109502380D02*
X136898095Y-109502380D01*
X137183809Y-109502380D02*
X137183809Y-108502380D01*
X137088571Y-108645238D01*
X136993333Y-108740476D01*
X136898095Y-108788095D01*
X138326666Y-108835714D02*
X138326666Y-109502380D01*
X138088571Y-108454761D02*
X137850476Y-109169047D01*
X138469523Y-109169047D01*
G04 #@! TD*
M02*
