M48
; DRILL file {KiCad 5.1.9-73d0e3b20d~88~ubuntu20.04.1} date Mon Apr 18 22:37:25 2022
; FORMAT={-:-/ absolute / inch / decimal}
; #@! TF.CreationDate,2022-04-18T22:37:25-07:00
; #@! TF.GenerationSoftware,Kicad,Pcbnew,5.1.9-73d0e3b20d~88~ubuntu20.04.1
FMAT,2
INCH
T1C0.0157
T2C0.0315
T3C0.0354
T4C0.0472
%
G90
G05
T1
X6.0Y-4.2
X6.1Y-3.45
X6.5Y-3.45
X6.5Y-4.2
X6.95Y-3.45
X7.0Y-4.2
X7.4Y-3.45
X7.5Y-4.2
X7.9Y-3.45
X8.0Y-4.2
T2
X5.2Y-4.2
X5.5Y-3.1
X5.5Y-3.5
X5.6Y-4.2
X5.7Y-4.2
X5.95Y-3.1
X5.95Y-3.5
X6.1Y-4.2
X6.2Y-4.2
X6.4Y-3.1
X6.4Y-3.5
X6.6Y-4.2
X6.7Y-4.2
X6.85Y-3.1
X6.85Y-3.5
X7.1Y-4.2
X7.2Y-4.2
X7.3Y-3.1
X7.3Y-3.5
X7.6Y-4.2
X7.7Y-4.2
X7.75Y-3.1
X7.75Y-3.5
X8.1Y-4.2
X8.2Y-3.1
X8.2Y-3.5
X8.2Y-4.2
X8.6Y-4.2
T3
X4.95Y-4.2
X5.05Y-4.2
X6.1Y-4.4
X6.2Y-4.4
X7.65Y-4.4
X7.75Y-4.4
X8.8Y-4.2
X8.9Y-4.2
T4
X5.3622Y-2.55
X5.5Y-2.55
X6.3732Y-2.55
X6.511Y-2.55
X6.6488Y-2.55
X6.7866Y-2.55
X6.9244Y-2.55
X7.0622Y-2.55
X7.2Y-2.55
T0
M30
