G04 #@! TF.GenerationSoftware,KiCad,Pcbnew,5.1.9-73d0e3b20d~88~ubuntu20.04.1*
G04 #@! TF.CreationDate,2022-04-18T22:37:33-07:00*
G04 #@! TF.ProjectId,Photo_Resistor_Sensing2,50686f74-6f5f-4526-9573-6973746f725f,rev?*
G04 #@! TF.SameCoordinates,Original*
G04 #@! TF.FileFunction,Soldermask,Top*
G04 #@! TF.FilePolarity,Negative*
%FSLAX46Y46*%
G04 Gerber Fmt 4.6, Leading zero omitted, Abs format (unit mm)*
G04 Created by KiCad (PCBNEW 5.1.9-73d0e3b20d~88~ubuntu20.04.1) date 2022-04-18 22:37:33*
%MOMM*%
%LPD*%
G01*
G04 APERTURE LIST*
%ADD10R,1.800000X1.800000*%
%ADD11C,1.800000*%
%ADD12R,2.400000X2.400000*%
%ADD13C,2.400000*%
%ADD14C,1.600000*%
%ADD15O,1.600000X1.600000*%
G04 APERTURE END LIST*
D10*
G04 #@! TO.C,D1*
X223520000Y-106680000D03*
D11*
X226060000Y-106680000D03*
G04 #@! TD*
G04 #@! TO.C,D2*
X196850000Y-111760000D03*
D10*
X194310000Y-111760000D03*
G04 #@! TD*
G04 #@! TO.C,D3*
X154940000Y-111760000D03*
D11*
X157480000Y-111760000D03*
G04 #@! TD*
G04 #@! TO.C,D4*
X128270000Y-106680000D03*
D10*
X125730000Y-106680000D03*
G04 #@! TD*
D12*
G04 #@! TO.C,J1*
X182880000Y-64770000D03*
D13*
X179380000Y-64770000D03*
X175880000Y-64770000D03*
X172380000Y-64770000D03*
X168880000Y-64770000D03*
X165380000Y-64770000D03*
X161880000Y-64770000D03*
G04 #@! TD*
D12*
G04 #@! TO.C,J2*
X139700000Y-64770000D03*
D13*
X136200000Y-64770000D03*
G04 #@! TD*
D14*
G04 #@! TO.C,R1*
X208280000Y-88900000D03*
D15*
X208280000Y-78740000D03*
G04 #@! TD*
G04 #@! TO.C,R2*
X208280000Y-106680000D03*
D14*
X218440000Y-106680000D03*
G04 #@! TD*
D15*
G04 #@! TO.C,R3*
X196850000Y-78740000D03*
D14*
X196850000Y-88900000D03*
G04 #@! TD*
G04 #@! TO.C,R4*
X205740000Y-106680000D03*
D15*
X195580000Y-106680000D03*
G04 #@! TD*
D14*
G04 #@! TO.C,R5*
X185420000Y-88900000D03*
D15*
X185420000Y-78740000D03*
G04 #@! TD*
G04 #@! TO.C,R6*
X182880000Y-106680000D03*
D14*
X193040000Y-106680000D03*
G04 #@! TD*
D15*
G04 #@! TO.C,R7*
X173990000Y-78740000D03*
D14*
X173990000Y-88900000D03*
G04 #@! TD*
G04 #@! TO.C,R8*
X180340000Y-106680000D03*
D15*
X170180000Y-106680000D03*
G04 #@! TD*
D14*
G04 #@! TO.C,R9*
X162560000Y-88900000D03*
D15*
X162560000Y-78740000D03*
G04 #@! TD*
G04 #@! TO.C,R10*
X157480000Y-106680000D03*
D14*
X167640000Y-106680000D03*
G04 #@! TD*
D15*
G04 #@! TO.C,R11*
X151130000Y-78740000D03*
D14*
X151130000Y-88900000D03*
G04 #@! TD*
G04 #@! TO.C,R12*
X154940000Y-106680000D03*
D15*
X144780000Y-106680000D03*
G04 #@! TD*
D14*
G04 #@! TO.C,R13*
X139700000Y-88900000D03*
D15*
X139700000Y-78740000D03*
G04 #@! TD*
G04 #@! TO.C,R14*
X132080000Y-106680000D03*
D14*
X142240000Y-106680000D03*
G04 #@! TD*
M02*
