G04 #@! TF.GenerationSoftware,KiCad,Pcbnew,5.1.9-73d0e3b20d~88~ubuntu20.04.1*
G04 #@! TF.CreationDate,2022-04-18T22:37:33-07:00*
G04 #@! TF.ProjectId,Photo_Resistor_Sensing2,50686f74-6f5f-4526-9573-6973746f725f,rev?*
G04 #@! TF.SameCoordinates,Original*
G04 #@! TF.FileFunction,Copper,L1,Top*
G04 #@! TF.FilePolarity,Positive*
%FSLAX46Y46*%
G04 Gerber Fmt 4.6, Leading zero omitted, Abs format (unit mm)*
G04 Created by KiCad (PCBNEW 5.1.9-73d0e3b20d~88~ubuntu20.04.1) date 2022-04-18 22:37:33*
%MOMM*%
%LPD*%
G01*
G04 APERTURE LIST*
G04 #@! TA.AperFunction,ComponentPad*
%ADD10R,1.800000X1.800000*%
G04 #@! TD*
G04 #@! TA.AperFunction,ComponentPad*
%ADD11C,1.800000*%
G04 #@! TD*
G04 #@! TA.AperFunction,ComponentPad*
%ADD12R,2.400000X2.400000*%
G04 #@! TD*
G04 #@! TA.AperFunction,ComponentPad*
%ADD13C,2.400000*%
G04 #@! TD*
G04 #@! TA.AperFunction,ComponentPad*
%ADD14C,1.600000*%
G04 #@! TD*
G04 #@! TA.AperFunction,ComponentPad*
%ADD15O,1.600000X1.600000*%
G04 #@! TD*
G04 #@! TA.AperFunction,ViaPad*
%ADD16C,0.800000*%
G04 #@! TD*
G04 #@! TA.AperFunction,Conductor*
%ADD17C,0.250000*%
G04 #@! TD*
G04 APERTURE END LIST*
D10*
G04 #@! TO.P,D1,1*
G04 #@! TO.N,GND*
X223520000Y-106680000D03*
D11*
G04 #@! TO.P,D1,2*
G04 #@! TO.N,Net-(D1-Pad2)*
X226060000Y-106680000D03*
G04 #@! TD*
G04 #@! TO.P,D2,2*
G04 #@! TO.N,Net-(D1-Pad2)*
X196850000Y-111760000D03*
D10*
G04 #@! TO.P,D2,1*
G04 #@! TO.N,GND*
X194310000Y-111760000D03*
G04 #@! TD*
G04 #@! TO.P,D3,1*
G04 #@! TO.N,GND*
X154940000Y-111760000D03*
D11*
G04 #@! TO.P,D3,2*
G04 #@! TO.N,Net-(D1-Pad2)*
X157480000Y-111760000D03*
G04 #@! TD*
G04 #@! TO.P,D4,2*
G04 #@! TO.N,Net-(D1-Pad2)*
X128270000Y-106680000D03*
D10*
G04 #@! TO.P,D4,1*
G04 #@! TO.N,GND*
X125730000Y-106680000D03*
G04 #@! TD*
D12*
G04 #@! TO.P,J1,1*
G04 #@! TO.N,/A8*
X182880000Y-64770000D03*
D13*
G04 #@! TO.P,J1,2*
G04 #@! TO.N,/A9*
X179380000Y-64770000D03*
G04 #@! TO.P,J1,3*
G04 #@! TO.N,/A10*
X175880000Y-64770000D03*
G04 #@! TO.P,J1,4*
G04 #@! TO.N,/A11*
X172380000Y-64770000D03*
G04 #@! TO.P,J1,5*
G04 #@! TO.N,/A12*
X168880000Y-64770000D03*
G04 #@! TO.P,J1,6*
G04 #@! TO.N,/A13*
X165380000Y-64770000D03*
G04 #@! TO.P,J1,7*
G04 #@! TO.N,/A14*
X161880000Y-64770000D03*
G04 #@! TD*
D12*
G04 #@! TO.P,J2,1*
G04 #@! TO.N,Net-(J2-Pad1)*
X139700000Y-64770000D03*
D13*
G04 #@! TO.P,J2,2*
G04 #@! TO.N,GND*
X136200000Y-64770000D03*
G04 #@! TD*
D14*
G04 #@! TO.P,R1,1*
G04 #@! TO.N,Net-(R1-Pad1)*
X208280000Y-88900000D03*
D15*
G04 #@! TO.P,R1,2*
G04 #@! TO.N,/A8*
X208280000Y-78740000D03*
G04 #@! TD*
G04 #@! TO.P,R2,2*
G04 #@! TO.N,GND*
X208280000Y-106680000D03*
D14*
G04 #@! TO.P,R2,1*
G04 #@! TO.N,/A8*
X218440000Y-106680000D03*
G04 #@! TD*
D15*
G04 #@! TO.P,R3,2*
G04 #@! TO.N,/A9*
X196850000Y-78740000D03*
D14*
G04 #@! TO.P,R3,1*
G04 #@! TO.N,Net-(R1-Pad1)*
X196850000Y-88900000D03*
G04 #@! TD*
G04 #@! TO.P,R4,1*
G04 #@! TO.N,/A9*
X205740000Y-106680000D03*
D15*
G04 #@! TO.P,R4,2*
G04 #@! TO.N,GND*
X195580000Y-106680000D03*
G04 #@! TD*
D14*
G04 #@! TO.P,R5,1*
G04 #@! TO.N,Net-(R1-Pad1)*
X185420000Y-88900000D03*
D15*
G04 #@! TO.P,R5,2*
G04 #@! TO.N,/A10*
X185420000Y-78740000D03*
G04 #@! TD*
G04 #@! TO.P,R6,2*
G04 #@! TO.N,GND*
X182880000Y-106680000D03*
D14*
G04 #@! TO.P,R6,1*
G04 #@! TO.N,/A10*
X193040000Y-106680000D03*
G04 #@! TD*
D15*
G04 #@! TO.P,R7,2*
G04 #@! TO.N,/A11*
X173990000Y-78740000D03*
D14*
G04 #@! TO.P,R7,1*
G04 #@! TO.N,Net-(R1-Pad1)*
X173990000Y-88900000D03*
G04 #@! TD*
G04 #@! TO.P,R8,1*
G04 #@! TO.N,/A11*
X180340000Y-106680000D03*
D15*
G04 #@! TO.P,R8,2*
G04 #@! TO.N,GND*
X170180000Y-106680000D03*
G04 #@! TD*
D14*
G04 #@! TO.P,R9,1*
G04 #@! TO.N,Net-(R1-Pad1)*
X162560000Y-88900000D03*
D15*
G04 #@! TO.P,R9,2*
G04 #@! TO.N,/A12*
X162560000Y-78740000D03*
G04 #@! TD*
G04 #@! TO.P,R10,2*
G04 #@! TO.N,GND*
X157480000Y-106680000D03*
D14*
G04 #@! TO.P,R10,1*
G04 #@! TO.N,/A12*
X167640000Y-106680000D03*
G04 #@! TD*
D15*
G04 #@! TO.P,R11,2*
G04 #@! TO.N,/A13*
X151130000Y-78740000D03*
D14*
G04 #@! TO.P,R11,1*
G04 #@! TO.N,Net-(R1-Pad1)*
X151130000Y-88900000D03*
G04 #@! TD*
G04 #@! TO.P,R12,1*
G04 #@! TO.N,/A13*
X154940000Y-106680000D03*
D15*
G04 #@! TO.P,R12,2*
G04 #@! TO.N,GND*
X144780000Y-106680000D03*
G04 #@! TD*
D14*
G04 #@! TO.P,R13,1*
G04 #@! TO.N,Net-(R1-Pad1)*
X139700000Y-88900000D03*
D15*
G04 #@! TO.P,R13,2*
G04 #@! TO.N,/A14*
X139700000Y-78740000D03*
G04 #@! TD*
G04 #@! TO.P,R14,2*
G04 #@! TO.N,GND*
X132080000Y-106680000D03*
D14*
G04 #@! TO.P,R14,1*
G04 #@! TO.N,/A14*
X142240000Y-106680000D03*
G04 #@! TD*
D16*
G04 #@! TO.N,/A9*
X200660000Y-87630000D03*
X203200000Y-106680000D03*
G04 #@! TO.N,/A10*
X187960000Y-87630000D03*
X190500000Y-106680000D03*
G04 #@! TO.N,/A11*
X176530000Y-87630000D03*
X177800000Y-106680000D03*
G04 #@! TO.N,/A12*
X165100000Y-87630000D03*
X165100000Y-106680000D03*
G04 #@! TO.N,/A13*
X154940000Y-87630000D03*
X152400000Y-106680000D03*
G04 #@! TD*
D17*
G04 #@! TO.N,Net-(D1-Pad2)*
X129395001Y-107805001D02*
X153525001Y-107805001D01*
X153525001Y-107805001D02*
X157480000Y-111760000D01*
X128270000Y-106680000D02*
X129395001Y-107805001D01*
X195624999Y-112985001D02*
X196850000Y-111760000D01*
X158705001Y-112985001D02*
X195624999Y-112985001D01*
X157480000Y-111760000D02*
X158705001Y-112985001D01*
X220980000Y-111760000D02*
X226060000Y-106680000D01*
X196850000Y-111760000D02*
X220980000Y-111760000D01*
G04 #@! TO.N,/A8*
X194310000Y-64770000D02*
X208280000Y-78740000D01*
X182880000Y-64770000D02*
X194310000Y-64770000D01*
X208280000Y-78740000D02*
X209405001Y-79865001D01*
X218440000Y-88900000D02*
X218440000Y-106680000D01*
X208280000Y-78740000D02*
X218440000Y-88900000D01*
G04 #@! TO.N,/A9*
X193350000Y-78740000D02*
X196850000Y-78740000D01*
X179380000Y-64770000D02*
X193350000Y-78740000D01*
X196850000Y-83820000D02*
X200660000Y-87630000D01*
X196850000Y-78740000D02*
X196850000Y-83820000D01*
X203200000Y-106680000D02*
X205740000Y-106680000D01*
G04 #@! TO.N,/A10*
X175880000Y-69200000D02*
X185420000Y-78740000D01*
X175880000Y-64770000D02*
X175880000Y-69200000D01*
X185420000Y-85090000D02*
X187960000Y-87630000D01*
X185420000Y-78740000D02*
X185420000Y-85090000D01*
X190500000Y-106680000D02*
X193040000Y-106680000D01*
G04 #@! TO.N,/A11*
X172380000Y-77130000D02*
X173990000Y-78740000D01*
X172380000Y-64770000D02*
X172380000Y-77130000D01*
X173990000Y-85090000D02*
X176530000Y-87630000D01*
X173990000Y-78740000D02*
X173990000Y-85090000D01*
X177800000Y-106680000D02*
X180340000Y-106680000D01*
G04 #@! TO.N,/A12*
X168880000Y-72420000D02*
X162560000Y-78740000D01*
X168880000Y-64770000D02*
X168880000Y-72420000D01*
X162560000Y-78740000D02*
X162560000Y-85090000D01*
X162560000Y-85090000D02*
X165100000Y-87630000D01*
X165100000Y-106680000D02*
X167640000Y-106680000D01*
G04 #@! TO.N,/A13*
X151410000Y-78740000D02*
X151130000Y-78740000D01*
X165380000Y-64770000D02*
X151410000Y-78740000D01*
X151130000Y-83820000D02*
X154940000Y-87630000D01*
X151130000Y-78740000D02*
X151130000Y-83820000D01*
X152400000Y-106680000D02*
X154940000Y-106680000D01*
G04 #@! TO.N,/A14*
X153670000Y-64770000D02*
X139700000Y-78740000D01*
X161880000Y-64770000D02*
X153670000Y-64770000D01*
X138574999Y-103014999D02*
X142240000Y-106680000D01*
X138574999Y-79865001D02*
X138574999Y-103014999D01*
X139700000Y-78740000D02*
X138574999Y-79865001D01*
G04 #@! TO.N,Net-(R1-Pad1)*
X139700000Y-88900000D02*
X151130000Y-88900000D01*
X151130000Y-88900000D02*
X162560000Y-88900000D01*
X162560000Y-88900000D02*
X173990000Y-88900000D01*
X173990000Y-88900000D02*
X185420000Y-88900000D01*
X185420000Y-88900000D02*
X196850000Y-88900000D01*
X196850000Y-88900000D02*
X208280000Y-88900000D01*
G04 #@! TD*
M02*
