G04 #@! TF.GenerationSoftware,KiCad,Pcbnew,5.1.9-73d0e3b20d~88~ubuntu20.04.1*
G04 #@! TF.CreationDate,2022-04-18T23:00:47-07:00*
G04 #@! TF.ProjectId,Photo_Resistor_Sensing,50686f74-6f5f-4526-9573-6973746f725f,rev?*
G04 #@! TF.SameCoordinates,Original*
G04 #@! TF.FileFunction,Copper,L1,Top*
G04 #@! TF.FilePolarity,Positive*
%FSLAX46Y46*%
G04 Gerber Fmt 4.6, Leading zero omitted, Abs format (unit mm)*
G04 Created by KiCad (PCBNEW 5.1.9-73d0e3b20d~88~ubuntu20.04.1) date 2022-04-18 23:00:47*
%MOMM*%
%LPD*%
G01*
G04 APERTURE LIST*
G04 #@! TA.AperFunction,ComponentPad*
%ADD10R,1.700000X1.700000*%
G04 #@! TD*
G04 #@! TA.AperFunction,ComponentPad*
%ADD11O,1.700000X1.700000*%
G04 #@! TD*
G04 #@! TA.AperFunction,ComponentPad*
%ADD12C,1.440000*%
G04 #@! TD*
G04 #@! TA.AperFunction,ViaPad*
%ADD13C,0.800000*%
G04 #@! TD*
G04 #@! TA.AperFunction,Conductor*
%ADD14C,0.250000*%
G04 #@! TD*
G04 APERTURE END LIST*
D10*
G04 #@! TO.P,J1,1*
G04 #@! TO.N,Net-(J1-Pad1)*
X110490000Y-66040000D03*
D11*
G04 #@! TO.P,J1,2*
G04 #@! TO.N,GND*
X113030000Y-66040000D03*
G04 #@! TO.P,J1,3*
G04 #@! TO.N,/A0*
X115570000Y-66040000D03*
G04 #@! TO.P,J1,4*
G04 #@! TO.N,/A1*
X118110000Y-66040000D03*
G04 #@! TO.P,J1,5*
G04 #@! TO.N,/A2*
X120650000Y-66040000D03*
G04 #@! TO.P,J1,6*
G04 #@! TO.N,/A3*
X123190000Y-66040000D03*
G04 #@! TD*
D12*
G04 #@! TO.P,RV1,3*
G04 #@! TO.N,GND*
X100330000Y-74930000D03*
G04 #@! TO.P,RV1,2*
G04 #@! TO.N,/A0*
X97790000Y-77470000D03*
G04 #@! TO.P,RV1,1*
G04 #@! TO.N,Net-(RV1-Pad1)*
X95250000Y-74930000D03*
G04 #@! TD*
G04 #@! TO.P,RV2,1*
G04 #@! TO.N,Net-(RV1-Pad1)*
X107950000Y-74930000D03*
G04 #@! TO.P,RV2,2*
G04 #@! TO.N,/A1*
X110490000Y-77470000D03*
G04 #@! TO.P,RV2,3*
G04 #@! TO.N,GND*
X113030000Y-74930000D03*
G04 #@! TD*
G04 #@! TO.P,RV3,3*
G04 #@! TO.N,GND*
X125730000Y-74930000D03*
G04 #@! TO.P,RV3,2*
G04 #@! TO.N,/A2*
X123190000Y-77470000D03*
G04 #@! TO.P,RV3,1*
G04 #@! TO.N,Net-(RV1-Pad1)*
X120650000Y-74930000D03*
G04 #@! TD*
G04 #@! TO.P,RV4,1*
G04 #@! TO.N,Net-(RV1-Pad1)*
X133350000Y-74930000D03*
G04 #@! TO.P,RV4,2*
G04 #@! TO.N,/A3*
X135890000Y-77470000D03*
G04 #@! TO.P,RV4,3*
G04 #@! TO.N,GND*
X138430000Y-74930000D03*
G04 #@! TD*
D13*
G04 #@! TO.N,/A0*
X102870000Y-72390000D03*
X100330000Y-77470000D03*
G04 #@! TO.N,/A1*
X114300000Y-72390000D03*
X111760000Y-77470000D03*
G04 #@! TO.N,/A2*
X121920000Y-72390000D03*
X121920000Y-77470000D03*
G04 #@! TD*
D14*
G04 #@! TO.N,/A0*
X102870000Y-71374998D02*
X102870000Y-72390000D01*
X109379999Y-64864999D02*
X102870000Y-71374998D01*
X114394999Y-64864999D02*
X109379999Y-64864999D01*
X115570000Y-66040000D02*
X114394999Y-64864999D01*
X100330000Y-77470000D02*
X97790000Y-77470000D01*
G04 #@! TO.N,/A1*
X118110000Y-68580000D02*
X114300000Y-72390000D01*
X118110000Y-66040000D02*
X118110000Y-68580000D01*
X111760000Y-77470000D02*
X110490000Y-77470000D01*
G04 #@! TO.N,/A2*
X120650000Y-71120000D02*
X121920000Y-72390000D01*
X120650000Y-66040000D02*
X120650000Y-71120000D01*
X121920000Y-77470000D02*
X123190000Y-77470000D01*
G04 #@! TO.N,/A3*
X126006602Y-66040000D02*
X135890000Y-75923398D01*
X135890000Y-75923398D02*
X135890000Y-77470000D01*
X123190000Y-66040000D02*
X126006602Y-66040000D01*
G04 #@! TO.N,Net-(RV1-Pad1)*
X106904999Y-75975001D02*
X107950000Y-74930000D01*
X96295001Y-75975001D02*
X106904999Y-75975001D01*
X95250000Y-74930000D02*
X96295001Y-75975001D01*
X119604999Y-75975001D02*
X120650000Y-74930000D01*
X108995001Y-75975001D02*
X119604999Y-75975001D01*
X107950000Y-74930000D02*
X108995001Y-75975001D01*
X132304999Y-75975001D02*
X133350000Y-74930000D01*
X121695001Y-75975001D02*
X132304999Y-75975001D01*
X120650000Y-74930000D02*
X121695001Y-75975001D01*
G04 #@! TD*
M02*
