G04 #@! TF.GenerationSoftware,KiCad,Pcbnew,5.1.9-73d0e3b20d~88~ubuntu20.04.1*
G04 #@! TF.CreationDate,2022-04-18T23:00:47-07:00*
G04 #@! TF.ProjectId,Photo_Resistor_Sensing,50686f74-6f5f-4526-9573-6973746f725f,rev?*
G04 #@! TF.SameCoordinates,Original*
G04 #@! TF.FileFunction,Legend,Top*
G04 #@! TF.FilePolarity,Positive*
%FSLAX46Y46*%
G04 Gerber Fmt 4.6, Leading zero omitted, Abs format (unit mm)*
G04 Created by KiCad (PCBNEW 5.1.9-73d0e3b20d~88~ubuntu20.04.1) date 2022-04-18 23:00:47*
%MOMM*%
%LPD*%
G01*
G04 APERTURE LIST*
%ADD10C,0.300000*%
%ADD11C,0.250000*%
%ADD12C,0.120000*%
%ADD13C,0.150000*%
G04 APERTURE END LIST*
D10*
X129635714Y-64657857D02*
X130135714Y-64657857D01*
X130350000Y-65443571D02*
X129635714Y-65443571D01*
X129635714Y-63943571D01*
X130350000Y-63943571D01*
X130992857Y-64657857D02*
X131492857Y-64657857D01*
X131707142Y-65443571D02*
X130992857Y-65443571D01*
X130992857Y-63943571D01*
X131707142Y-63943571D01*
X133421428Y-64086428D02*
X133492857Y-64015000D01*
X133635714Y-63943571D01*
X133992857Y-63943571D01*
X134135714Y-64015000D01*
X134207142Y-64086428D01*
X134278571Y-64229285D01*
X134278571Y-64372142D01*
X134207142Y-64586428D01*
X133350000Y-65443571D01*
X134278571Y-65443571D01*
X134992857Y-65443571D02*
X135278571Y-65443571D01*
X135421428Y-65372142D01*
X135492857Y-65300714D01*
X135635714Y-65086428D01*
X135707142Y-64800714D01*
X135707142Y-64229285D01*
X135635714Y-64086428D01*
X135564285Y-64015000D01*
X135421428Y-63943571D01*
X135135714Y-63943571D01*
X134992857Y-64015000D01*
X134921428Y-64086428D01*
X134850000Y-64229285D01*
X134850000Y-64586428D01*
X134921428Y-64729285D01*
X134992857Y-64800714D01*
X135135714Y-64872142D01*
X135421428Y-64872142D01*
X135564285Y-64800714D01*
X135635714Y-64729285D01*
X135707142Y-64586428D01*
X136421428Y-65443571D02*
X136707142Y-65443571D01*
X136850000Y-65372142D01*
X136921428Y-65300714D01*
X137064285Y-65086428D01*
X137135714Y-64800714D01*
X137135714Y-64229285D01*
X137064285Y-64086428D01*
X136992857Y-64015000D01*
X136850000Y-63943571D01*
X136564285Y-63943571D01*
X136421428Y-64015000D01*
X136350000Y-64086428D01*
X136278571Y-64229285D01*
X136278571Y-64586428D01*
X136350000Y-64729285D01*
X136421428Y-64800714D01*
X136564285Y-64872142D01*
X136850000Y-64872142D01*
X136992857Y-64800714D01*
X137064285Y-64729285D01*
X137135714Y-64586428D01*
X129885714Y-67850714D02*
X129814285Y-67922142D01*
X129600000Y-67993571D01*
X129457142Y-67993571D01*
X129242857Y-67922142D01*
X129100000Y-67779285D01*
X129028571Y-67636428D01*
X128957142Y-67350714D01*
X128957142Y-67136428D01*
X129028571Y-66850714D01*
X129100000Y-66707857D01*
X129242857Y-66565000D01*
X129457142Y-66493571D01*
X129600000Y-66493571D01*
X129814285Y-66565000D01*
X129885714Y-66636428D01*
X130742857Y-67993571D02*
X130600000Y-67922142D01*
X130528571Y-67850714D01*
X130457142Y-67707857D01*
X130457142Y-67279285D01*
X130528571Y-67136428D01*
X130600000Y-67065000D01*
X130742857Y-66993571D01*
X130957142Y-66993571D01*
X131100000Y-67065000D01*
X131171428Y-67136428D01*
X131242857Y-67279285D01*
X131242857Y-67707857D01*
X131171428Y-67850714D01*
X131100000Y-67922142D01*
X130957142Y-67993571D01*
X130742857Y-67993571D01*
X131885714Y-66993571D02*
X131885714Y-67993571D01*
X131885714Y-67136428D02*
X131957142Y-67065000D01*
X132100000Y-66993571D01*
X132314285Y-66993571D01*
X132457142Y-67065000D01*
X132528571Y-67207857D01*
X132528571Y-67993571D01*
X133028571Y-66993571D02*
X133600000Y-66993571D01*
X133242857Y-66493571D02*
X133242857Y-67779285D01*
X133314285Y-67922142D01*
X133457142Y-67993571D01*
X133600000Y-67993571D01*
X134100000Y-67993571D02*
X134100000Y-66993571D01*
X134100000Y-67279285D02*
X134171428Y-67136428D01*
X134242857Y-67065000D01*
X134385714Y-66993571D01*
X134528571Y-66993571D01*
X135242857Y-67993571D02*
X135100000Y-67922142D01*
X135028571Y-67850714D01*
X134957142Y-67707857D01*
X134957142Y-67279285D01*
X135028571Y-67136428D01*
X135100000Y-67065000D01*
X135242857Y-66993571D01*
X135457142Y-66993571D01*
X135600000Y-67065000D01*
X135671428Y-67136428D01*
X135742857Y-67279285D01*
X135742857Y-67707857D01*
X135671428Y-67850714D01*
X135600000Y-67922142D01*
X135457142Y-67993571D01*
X135242857Y-67993571D01*
X136600000Y-67993571D02*
X136457142Y-67922142D01*
X136385714Y-67779285D01*
X136385714Y-66493571D01*
X137100000Y-67922142D02*
X137242857Y-67993571D01*
X137528571Y-67993571D01*
X137671428Y-67922142D01*
X137742857Y-67779285D01*
X137742857Y-67707857D01*
X137671428Y-67565000D01*
X137528571Y-67493571D01*
X137314285Y-67493571D01*
X137171428Y-67422142D01*
X137100000Y-67279285D01*
X137100000Y-67207857D01*
X137171428Y-67065000D01*
X137314285Y-66993571D01*
X137528571Y-66993571D01*
X137671428Y-67065000D01*
D11*
X123904285Y-63333333D02*
X123428095Y-63333333D01*
X123999523Y-63047619D02*
X123666190Y-64047619D01*
X123332857Y-63047619D01*
X123094761Y-64047619D02*
X122475714Y-64047619D01*
X122809047Y-63666666D01*
X122666190Y-63666666D01*
X122570952Y-63619047D01*
X122523333Y-63571428D01*
X122475714Y-63476190D01*
X122475714Y-63238095D01*
X122523333Y-63142857D01*
X122570952Y-63095238D01*
X122666190Y-63047619D01*
X122951904Y-63047619D01*
X123047142Y-63095238D01*
X123094761Y-63142857D01*
X121364285Y-63333333D02*
X120888095Y-63333333D01*
X121459523Y-63047619D02*
X121126190Y-64047619D01*
X120792857Y-63047619D01*
X120507142Y-63952380D02*
X120459523Y-64000000D01*
X120364285Y-64047619D01*
X120126190Y-64047619D01*
X120030952Y-64000000D01*
X119983333Y-63952380D01*
X119935714Y-63857142D01*
X119935714Y-63761904D01*
X119983333Y-63619047D01*
X120554761Y-63047619D01*
X119935714Y-63047619D01*
X118824285Y-63333333D02*
X118348095Y-63333333D01*
X118919523Y-63047619D02*
X118586190Y-64047619D01*
X118252857Y-63047619D01*
X117395714Y-63047619D02*
X117967142Y-63047619D01*
X117681428Y-63047619D02*
X117681428Y-64047619D01*
X117776666Y-63904761D01*
X117871904Y-63809523D01*
X117967142Y-63761904D01*
X116284285Y-63333333D02*
X115808095Y-63333333D01*
X116379523Y-63047619D02*
X116046190Y-64047619D01*
X115712857Y-63047619D01*
X115189047Y-64047619D02*
X115093809Y-64047619D01*
X114998571Y-64000000D01*
X114950952Y-63952380D01*
X114903333Y-63857142D01*
X114855714Y-63666666D01*
X114855714Y-63428571D01*
X114903333Y-63238095D01*
X114950952Y-63142857D01*
X114998571Y-63095238D01*
X115093809Y-63047619D01*
X115189047Y-63047619D01*
X115284285Y-63095238D01*
X115331904Y-63142857D01*
X115379523Y-63238095D01*
X115427142Y-63428571D01*
X115427142Y-63666666D01*
X115379523Y-63857142D01*
X115331904Y-63952380D01*
X115284285Y-64000000D01*
X115189047Y-64047619D01*
X113791904Y-64000000D02*
X113887142Y-64047619D01*
X114030000Y-64047619D01*
X114172857Y-64000000D01*
X114268095Y-63904761D01*
X114315714Y-63809523D01*
X114363333Y-63619047D01*
X114363333Y-63476190D01*
X114315714Y-63285714D01*
X114268095Y-63190476D01*
X114172857Y-63095238D01*
X114030000Y-63047619D01*
X113934761Y-63047619D01*
X113791904Y-63095238D01*
X113744285Y-63142857D01*
X113744285Y-63476190D01*
X113934761Y-63476190D01*
X113315714Y-63047619D02*
X113315714Y-64047619D01*
X112744285Y-63047619D01*
X112744285Y-64047619D01*
X112268095Y-63047619D02*
X112268095Y-64047619D01*
X112030000Y-64047619D01*
X111887142Y-64000000D01*
X111791904Y-63904761D01*
X111744285Y-63809523D01*
X111696666Y-63619047D01*
X111696666Y-63476190D01*
X111744285Y-63285714D01*
X111791904Y-63190476D01*
X111887142Y-63095238D01*
X112030000Y-63047619D01*
X112268095Y-63047619D01*
X110553333Y-64047619D02*
X110220000Y-63047619D01*
X109886666Y-64047619D01*
X108981904Y-63142857D02*
X109029523Y-63095238D01*
X109172380Y-63047619D01*
X109267619Y-63047619D01*
X109410476Y-63095238D01*
X109505714Y-63190476D01*
X109553333Y-63285714D01*
X109600952Y-63476190D01*
X109600952Y-63619047D01*
X109553333Y-63809523D01*
X109505714Y-63904761D01*
X109410476Y-64000000D01*
X109267619Y-64047619D01*
X109172380Y-64047619D01*
X109029523Y-64000000D01*
X108981904Y-63952380D01*
X107981904Y-63142857D02*
X108029523Y-63095238D01*
X108172380Y-63047619D01*
X108267619Y-63047619D01*
X108410476Y-63095238D01*
X108505714Y-63190476D01*
X108553333Y-63285714D01*
X108600952Y-63476190D01*
X108600952Y-63619047D01*
X108553333Y-63809523D01*
X108505714Y-63904761D01*
X108410476Y-64000000D01*
X108267619Y-64047619D01*
X108172380Y-64047619D01*
X108029523Y-64000000D01*
X107981904Y-63952380D01*
D10*
X135497142Y-83228571D02*
X135497142Y-81728571D01*
X135854285Y-81728571D01*
X136068571Y-81800000D01*
X136211428Y-81942857D01*
X136282857Y-82085714D01*
X136354285Y-82371428D01*
X136354285Y-82585714D01*
X136282857Y-82871428D01*
X136211428Y-83014285D01*
X136068571Y-83157142D01*
X135854285Y-83228571D01*
X135497142Y-83228571D01*
X123190000Y-83228571D02*
X123190000Y-81728571D01*
X110097142Y-83228571D02*
X110097142Y-81728571D01*
X110668571Y-81728571D01*
X110811428Y-81800000D01*
X110882857Y-81871428D01*
X110954285Y-82014285D01*
X110954285Y-82228571D01*
X110882857Y-82371428D01*
X110811428Y-82442857D01*
X110668571Y-82514285D01*
X110097142Y-82514285D01*
X94504285Y-83157142D02*
X94718571Y-83228571D01*
X95075714Y-83228571D01*
X95218571Y-83157142D01*
X95290000Y-83085714D01*
X95361428Y-82942857D01*
X95361428Y-82800000D01*
X95290000Y-82657142D01*
X95218571Y-82585714D01*
X95075714Y-82514285D01*
X94790000Y-82442857D01*
X94647142Y-82371428D01*
X94575714Y-82300000D01*
X94504285Y-82157142D01*
X94504285Y-82014285D01*
X94575714Y-81871428D01*
X94647142Y-81800000D01*
X94790000Y-81728571D01*
X95147142Y-81728571D01*
X95361428Y-81800000D01*
X96004285Y-83228571D02*
X96004285Y-81728571D01*
X96575714Y-81728571D01*
X96718571Y-81800000D01*
X96790000Y-81871428D01*
X96861428Y-82014285D01*
X96861428Y-82228571D01*
X96790000Y-82371428D01*
X96718571Y-82442857D01*
X96575714Y-82514285D01*
X96004285Y-82514285D01*
X97504285Y-82442857D02*
X98004285Y-82442857D01*
X98218571Y-83228571D02*
X97504285Y-83228571D01*
X97504285Y-81728571D01*
X98218571Y-81728571D01*
X98861428Y-82442857D02*
X99361428Y-82442857D01*
X99575714Y-83228571D02*
X98861428Y-83228571D01*
X98861428Y-81728571D01*
X99575714Y-81728571D01*
X100218571Y-83228571D02*
X100218571Y-81728571D01*
X100575714Y-81728571D01*
X100790000Y-81800000D01*
X100932857Y-81942857D01*
X101004285Y-82085714D01*
X101075714Y-82371428D01*
X101075714Y-82585714D01*
X101004285Y-82871428D01*
X100932857Y-83014285D01*
X100790000Y-83157142D01*
X100575714Y-83228571D01*
X100218571Y-83228571D01*
D12*
G04 #@! TO.C,J1*
X109160000Y-67370000D02*
X109160000Y-66040000D01*
X110490000Y-67370000D02*
X109160000Y-67370000D01*
X111760000Y-67370000D02*
X111760000Y-64710000D01*
X111760000Y-64710000D02*
X124520000Y-64710000D01*
X111760000Y-67370000D02*
X124520000Y-67370000D01*
X124520000Y-67370000D02*
X124520000Y-64710000D01*
G04 #@! TO.C,RV1*
X102675000Y-79800000D02*
X92905000Y-79800000D01*
X102675000Y-70030000D02*
X92905000Y-70030000D01*
X92905000Y-70030000D02*
X92905000Y-79800000D01*
X102675000Y-70030000D02*
X102675000Y-79800000D01*
G04 #@! TO.C,RV2*
X115375000Y-70030000D02*
X115375000Y-79800000D01*
X105605000Y-70030000D02*
X105605000Y-79800000D01*
X115375000Y-70030000D02*
X105605000Y-70030000D01*
X115375000Y-79800000D02*
X105605000Y-79800000D01*
G04 #@! TO.C,RV3*
X128075000Y-79800000D02*
X118305000Y-79800000D01*
X128075000Y-70030000D02*
X118305000Y-70030000D01*
X118305000Y-70030000D02*
X118305000Y-79800000D01*
X128075000Y-70030000D02*
X128075000Y-79800000D01*
G04 #@! TO.C,RV4*
X140775000Y-70030000D02*
X140775000Y-79800000D01*
X131005000Y-70030000D02*
X131005000Y-79800000D01*
X140775000Y-70030000D02*
X131005000Y-70030000D01*
X140775000Y-79800000D02*
X131005000Y-79800000D01*
G04 #@! TO.C,J1*
D13*
X107612380Y-66373333D02*
X108326666Y-66373333D01*
X108469523Y-66420952D01*
X108564761Y-66516190D01*
X108612380Y-66659047D01*
X108612380Y-66754285D01*
X108612380Y-65373333D02*
X108612380Y-65944761D01*
X108612380Y-65659047D02*
X107612380Y-65659047D01*
X107755238Y-65754285D01*
X107850476Y-65849523D01*
X107898095Y-65944761D01*
G04 #@! TD*
M02*
