M48
; DRILL file {KiCad 5.1.9-73d0e3b20d~88~ubuntu20.04.1} date Mon Apr 18 23:00:40 2022
; FORMAT={-:-/ absolute / inch / decimal}
; #@! TF.CreationDate,2022-04-18T23:00:40-07:00
; #@! TF.GenerationSoftware,Kicad,Pcbnew,5.1.9-73d0e3b20d~88~ubuntu20.04.1
FMAT,2
INCH
T1C0.0157
T2C0.0315
T3C0.0394
%
G90
G05
T1
X3.95Y-3.05
X4.05Y-2.85
X4.4Y-3.05
X4.5Y-2.85
X4.8Y-2.85
X4.8Y-3.05
T2
X3.75Y-2.95
X3.85Y-3.05
X3.95Y-2.95
X4.25Y-2.95
X4.35Y-3.05
X4.45Y-2.95
X4.75Y-2.95
X4.85Y-3.05
X4.95Y-2.95
X5.25Y-2.95
X5.35Y-3.05
X5.45Y-2.95
T3
X4.35Y-2.6
X4.45Y-2.6
X4.55Y-2.6
X4.65Y-2.6
X4.75Y-2.6
X4.85Y-2.6
T0
M30
